<svg width="195" height="58" viewBox="0 0 195 58" fill="none" xmlns="http://www.w3.org/2000/svg">
<path d="M177.935 43.6427H175.695V45.8732H177.935V43.6427Z" fill="#09090B"/>
<path d="M177.935 48.0999H175.695V50.3303H177.935V48.0999Z" fill="#09090B"/>
<path d="M157.789 39.1855V48.1036H155.549V43.6465H144.356V50.3341H173.455V43.6465H162.266V48.1036H160.026V41.416H177.935V39.1855H157.789ZM153.309 48.0998H146.593V45.8732H153.309V48.0998ZM164.502 45.8732H171.219V48.0998H164.502V45.8732Z" fill="#09090B"/>
<path d="M182.411 16.896H180.171V19.1265H182.411V16.896Z" fill="#09090B"/>
<path d="M186.891 16.896H184.651V19.1265H186.891V16.896Z" fill="#09090B"/>
<path d="M180.175 21.3494V32.4979H184.651V34.7246H177.935V16.8922H175.695V36.9551H184.651V39.1818H180.175V50.3265H186.888V21.3456H180.175V21.3494ZM184.651 48.0999H182.411V41.416H184.651V48.0999ZM184.651 30.2675H182.411V23.5836H184.651V30.2675Z" fill="#09090B"/>
<path d="M155.549 12.4351H153.309V14.6655H155.549V12.4351Z" fill="#09090B"/>
<path d="M155.549 7.97791H153.309V10.2084H155.549V7.97791Z" fill="#09090B"/>
<path d="M157.789 7.97791V14.6655H168.978V10.2084H171.218V16.896H153.309V19.1265H173.455V10.2084H175.695V14.6655H186.888V7.97791H157.789ZM166.742 12.4351H160.026V10.2084H166.742V12.4351ZM184.651 12.4351H177.935V10.2084H184.651V12.4351Z" fill="#09090B"/>
<path d="M151.073 39.1855H148.833V41.416H151.073V39.1855Z" fill="#09090B"/>
<path d="M146.593 39.1855H144.353V41.416H146.593V39.1855Z" fill="#09090B"/>
<path d="M146.593 21.3493V19.1227H151.069V7.97791H144.356V36.9589H151.069V25.8141H146.593V23.5874H153.309V41.4198H155.545V21.357H146.593V21.3493ZM146.593 10.2084H148.833V16.8922H146.593V10.2084ZM148.833 34.7246H146.593V28.0408H148.833V34.7246Z" fill="#09090B"/>
<path d="M168.481 26.5221C168.703 26.9865 168.829 27.5003 168.887 27.9837C168.348 27.2872 167.686 26.6706 166.983 26.21C167.044 26.2861 167.101 26.3699 167.155 26.4536C167.732 27.3861 167.633 28.6232 167.3 29.6242C167.09 28.6841 166.734 27.7668 166.264 26.9789C166.157 26.8 166.043 26.6211 165.92 26.4498L166.088 30.6633C166.088 30.8118 165.913 31.0782 165.618 31.0782C165.324 31.0782 165.148 30.8118 165.148 30.6633L165.312 26.4536C165.186 26.6249 165.075 26.8 164.968 26.9789C164.498 27.7668 164.143 28.6803 163.932 29.6242C163.6 28.627 163.5 27.3899 164.078 26.4536C164.131 26.3661 164.189 26.2861 164.25 26.21C163.55 26.6706 162.889 27.2872 162.346 27.9837C162.457 27.0131 162.851 25.9207 163.722 25.3726C164.013 25.1899 164.326 25.0719 164.647 25.0034C164.647 24.9844 164.647 24.992 164.647 24.9692C164.46 24.9806 164.276 24.9996 164.089 25.0263C163.283 25.1481 162.499 25.3802 161.757 25.7266C162.3 24.9006 163.164 24.2802 163.974 24.1736C164.104 24.1546 164.242 24.1508 164.38 24.1546C163.89 23.9072 163.367 23.7017 162.816 23.557C163.558 23.3591 164.357 23.401 165.052 23.7093C165.255 22.8567 165.618 22.3542 165.618 22.3542C165.618 22.3542 165.978 22.8567 166.184 23.7093C166.876 23.401 167.679 23.3629 168.42 23.557C167.874 23.7017 167.346 23.9072 166.857 24.1546C166.994 24.147 167.132 24.1546 167.258 24.1736C167.663 24.2269 168.084 24.4096 168.466 24.6799C168.852 24.9501 169.204 25.3155 169.475 25.7266C168.73 25.3802 167.95 25.1481 167.144 25.0263C166.956 24.9958 166.773 24.9806 166.585 24.9692C166.585 24.992 166.585 24.9844 166.585 25.0034C166.906 25.0719 167.22 25.1899 167.51 25.3726C167.946 25.6467 168.26 26.0578 168.481 26.5221Z" fill="#7D7150"/>
<path d="M173.455 29.4339C172.591 29.3387 171.689 29.5138 170.89 30.001L166.344 32.7682L168.168 33.8758L168.42 33.4647C168.42 33.4647 168.405 33.4571 168.397 33.4571C168.195 33.3315 168.13 33.0651 168.256 32.8633C168.382 32.6616 168.646 32.5969 168.848 32.7225C169.051 32.8481 169.116 33.1107 168.99 33.3125L168.512 34.0928L168.753 34.2412L169.296 34.5723C169.479 34.6865 169.697 34.6941 169.88 34.6142C169.888 34.7094 169.873 34.8083 169.838 34.8997C169.827 34.9339 169.808 34.9644 169.789 34.9986C169.605 35.2993 169.208 35.3945 168.906 35.208L168.122 34.7322L167.87 35.1471C167.87 35.1471 167.881 35.1509 167.885 35.1547C168.088 35.2803 168.153 35.5429 168.03 35.7447C167.904 35.9464 167.636 36.0149 167.434 35.8893C167.231 35.7637 167.166 35.4973 167.292 35.2955L167.774 34.5152L165.622 33.2059L163.47 34.5152L163.951 35.2955C164.074 35.4973 164.009 35.7637 163.806 35.8893C163.604 36.0149 163.336 35.9464 163.214 35.7447C163.087 35.5429 163.152 35.2803 163.355 35.1547C163.363 35.1547 163.367 35.1471 163.374 35.1433L163.122 34.7322L162.338 35.208C162.032 35.3945 161.639 35.2993 161.451 34.9986C161.432 34.9682 161.417 34.9339 161.402 34.8997C161.367 34.8083 161.352 34.7094 161.36 34.6142C161.547 34.6941 161.765 34.6827 161.948 34.5723L162.491 34.2412L162.736 34.0928L162.254 33.3125C162.128 33.1107 162.197 32.8443 162.399 32.7225C162.602 32.5969 162.866 32.6616 162.992 32.8633C163.118 33.0651 163.053 33.3315 162.85 33.4571C162.843 33.4571 162.839 33.4647 162.831 33.4647L163.084 33.8758L164.907 32.7682L160.362 30.001C159.563 29.5138 158.661 29.3387 157.797 29.4339C158.657 28.8515 159.808 28.7868 160.756 29.3616L165.63 32.3266L170.504 29.3616C171.448 28.7868 172.602 28.8515 173.462 29.4339" fill="#7D7150"/>
<path d="M36.9923 40.8032C36.9387 40.8032 36.8967 40.7727 36.8738 40.7118L35.639 38.1883H34.2743C34.2399 38.1883 34.2208 38.2073 34.2208 38.2416V40.7118C34.2208 40.7727 34.1902 40.8032 34.1291 40.8032H33.4907C33.4295 40.8032 33.3989 40.7727 33.3989 40.7118V34.717C33.3989 34.6561 33.4295 34.6256 33.4907 34.6256H35.7384C36.0289 34.6256 36.2965 34.6675 36.5335 34.7512C36.7705 34.835 36.977 34.9568 37.1452 35.109C37.3172 35.2651 37.4472 35.4516 37.5427 35.6723C37.6383 35.8931 37.6842 36.1367 37.6842 36.4031C37.6842 36.8218 37.5733 37.1758 37.3554 37.4651C37.1375 37.7544 36.8394 37.9599 36.4609 38.0817L37.7836 40.689C37.8027 40.7195 37.8065 40.7461 37.7912 40.7651C37.7797 40.788 37.7568 40.7956 37.7262 40.7956H36.9884L36.9923 40.8032ZM35.7193 37.4346C36.0825 37.4346 36.3653 37.3471 36.5641 37.1682C36.7629 36.9893 36.8623 36.7381 36.8623 36.4108C36.8623 36.0834 36.7629 35.8322 36.5641 35.6533C36.3653 35.4744 36.0825 35.3869 35.7193 35.3869H34.2743C34.2399 35.3869 34.2208 35.4059 34.2208 35.4402V37.3852C34.2208 37.4232 34.2399 37.4384 34.2743 37.4384H35.7193V37.4346Z" fill="#7D7150"/>
<path d="M41.2166 40.9022C40.6929 40.9022 40.2494 40.7804 39.8901 40.5406C39.5269 40.297 39.267 39.9392 39.1103 39.4596C39.0797 39.3683 39.0529 39.2731 39.0338 39.178C39.0109 39.0828 38.9956 38.9686 38.9841 38.8392C38.9726 38.7098 38.9612 38.5537 38.9574 38.371C38.9497 38.1883 38.9497 37.9714 38.9497 37.7164C38.9497 37.4613 38.9497 37.2444 38.9574 37.0617C38.965 36.879 38.9726 36.7229 38.9841 36.5935C38.9956 36.4641 39.0147 36.3499 39.0338 36.2548C39.0567 36.1596 39.0797 36.0644 39.1103 35.9731C39.267 35.4935 39.5269 35.1357 39.8901 34.8921C40.2532 34.6485 40.6929 34.5305 41.2166 34.5305C41.7403 34.5305 42.1914 34.6523 42.5545 34.8921C42.9177 35.1357 43.1776 35.4935 43.3343 35.9731C43.3649 36.0644 43.3917 36.1596 43.4108 36.2548C43.4337 36.3499 43.449 36.4641 43.4605 36.5935C43.472 36.7229 43.4834 36.879 43.4872 37.0617C43.4911 37.2444 43.4949 37.4613 43.4949 37.7164C43.4949 37.9714 43.4949 38.1883 43.4872 38.371C43.4796 38.5537 43.472 38.7098 43.4605 38.8392C43.449 38.9686 43.4299 39.0828 43.4108 39.178C43.3879 39.2731 43.3649 39.3683 43.3343 39.4596C43.1776 39.9392 42.9177 40.297 42.5545 40.5406C42.1914 40.7842 41.7479 40.9022 41.2166 40.9022ZM41.2166 40.1486C41.5644 40.1486 41.8473 40.0686 42.0652 39.9126C42.2831 39.7565 42.4437 39.5282 42.5392 39.2313C42.5583 39.178 42.5736 39.1095 42.5889 39.0257C42.6042 38.942 42.6195 38.843 42.6348 38.7212C42.6501 38.5994 42.6615 38.4586 42.6654 38.2949C42.6692 38.1313 42.673 37.9371 42.673 37.7126C42.673 37.488 42.673 37.2939 42.6654 37.1302C42.6577 36.9665 42.6501 36.8257 42.6348 36.7039C42.6195 36.5821 42.6042 36.4831 42.5889 36.3994C42.5736 36.3195 42.5583 36.251 42.5392 36.1939C42.4437 35.897 42.2831 35.6686 42.0652 35.5125C41.8473 35.3565 41.5644 35.2765 41.2166 35.2765C40.8687 35.2765 40.5896 35.3565 40.3718 35.5125C40.1539 35.6686 39.9971 35.897 39.9016 36.1939C39.8824 36.2471 39.8672 36.3157 39.8519 36.3994C39.8366 36.4793 39.8213 36.5821 39.806 36.7039C39.7907 36.8257 39.7792 36.9665 39.7754 37.1302C39.7716 37.2939 39.7678 37.488 39.7678 37.7126C39.7678 37.9371 39.7678 38.1313 39.7754 38.2949C39.7831 38.4586 39.7907 38.5994 39.806 38.7212C39.8213 38.843 39.8366 38.942 39.8519 39.0257C39.8672 39.1095 39.8824 39.1742 39.9016 39.2313C39.9971 39.5282 40.1539 39.7565 40.3718 39.9126C40.5858 40.0686 40.8687 40.1486 41.2166 40.1486Z" fill="#7D7150"/>
<path d="M46.2701 40.8032C46.209 40.8032 46.1784 40.7727 46.1784 40.7118V38.2758L44.3435 34.7246C44.3206 34.6599 44.3435 34.6256 44.4161 34.6256H45.0622C45.1157 34.6256 45.1616 34.6561 45.1998 34.717L46.5874 37.3623H46.6065L47.9827 34.717C48.0056 34.6561 48.0477 34.6256 48.1089 34.6256H48.7396C48.8122 34.6256 48.8352 34.6599 48.8122 34.7246L46.9773 38.2758V40.7118C46.9773 40.7727 46.9468 40.8032 46.8856 40.8032H46.2663H46.2701Z" fill="#7D7150"/>
<path d="M50.9531 34.717C50.9722 34.6561 51.0066 34.6256 51.0639 34.6256H51.6565C51.7176 34.6256 51.7559 34.6561 51.775 34.717L53.9004 40.7118C53.9195 40.7727 53.9004 40.8032 53.8354 40.8032H53.197C53.1359 40.8032 53.0976 40.7727 53.0785 40.7118L52.6045 39.3682H50.0968L49.6228 40.7118C49.5999 40.7727 49.5578 40.8032 49.5043 40.8032H48.8659C48.8047 40.8032 48.7856 40.7727 48.8009 40.7118L50.9531 34.717ZM52.3369 38.6146L51.3621 35.817H51.343L50.3567 38.6146H52.3369Z" fill="#7D7150"/>
<path d="M55.02 34.717C55.02 34.6561 55.0506 34.6256 55.1118 34.6256H55.7502C55.8113 34.6256 55.8419 34.6561 55.8419 34.717V39.9963C55.8419 40.0343 55.861 40.0496 55.8954 40.0496H58.8504C58.9115 40.0496 58.9421 40.08 58.9421 40.1409V40.7118C58.9421 40.7727 58.9115 40.8032 58.8504 40.8032H55.1118C55.0506 40.8032 55.02 40.7727 55.02 40.7118V34.717Z" fill="#7D7150"/>
<path d="M62.3368 39.4521C62.3062 39.3607 62.2795 39.2694 62.2604 39.1742C62.2374 39.079 62.2221 38.9687 62.2107 38.8392C62.1992 38.7098 62.1877 38.5538 62.1839 38.3711C62.1763 38.1884 62.1763 37.9714 62.1763 37.7164C62.1763 37.4614 62.1763 37.2444 62.1839 37.0617C62.1916 36.879 62.1992 36.723 62.2107 36.5935C62.2221 36.4641 62.2413 36.3499 62.2604 36.2586C62.2833 36.1634 62.3062 36.0721 62.3368 35.9807C62.4936 35.4897 62.7497 35.1243 63.1014 34.8845C63.4531 34.6447 63.885 34.5267 64.3973 34.5267C64.8598 34.5267 65.2612 34.6333 65.6052 34.8503C65.9493 35.0672 66.2092 35.3717 66.3851 35.7714C66.4042 35.8247 66.3927 35.8665 66.3468 35.8894L65.8002 36.152C65.739 36.1825 65.697 36.1672 65.674 36.1063C65.5517 35.8627 65.3912 35.6648 65.1924 35.5126C64.9898 35.3565 64.726 35.2804 64.3973 35.2804C64.0685 35.2804 63.7818 35.3603 63.5754 35.5164C63.369 35.6724 63.2122 35.897 63.109 36.1901C63.0899 36.2586 63.0746 36.3271 63.0593 36.4032C63.044 36.4794 63.0326 36.5745 63.0211 36.6849C63.0134 36.7953 63.0058 36.9361 62.9982 37.1036C62.9905 37.2711 62.9905 37.4728 62.9905 37.7164C62.9905 37.96 62.9905 38.1617 62.9982 38.3292C63.0058 38.4967 63.0134 38.6337 63.0211 38.7479C63.0287 38.8583 63.044 38.9572 63.0593 39.0334C63.0746 39.1133 63.0899 39.1818 63.109 39.2427C63.2122 39.532 63.369 39.7566 63.5754 39.9164C63.7818 40.0725 64.057 40.1524 64.3973 40.1524C64.7375 40.1524 64.9898 40.0763 65.1924 39.9202C65.395 39.7642 65.5555 39.5662 65.674 39.3264C65.697 39.2655 65.7428 39.2503 65.8002 39.2808L66.3468 39.5434C66.3889 39.5662 66.4004 39.6081 66.3851 39.6614C66.2092 40.0611 65.9493 40.3694 65.6052 40.5825C65.2612 40.7995 64.8598 40.906 64.3973 40.906C63.885 40.906 63.4531 40.7881 63.1014 40.5483C62.7497 40.3085 62.4936 39.9431 62.3368 39.4521Z" fill="#7D7150"/>
<path d="M69.7449 40.9022C69.2212 40.9022 68.7777 40.7804 68.4184 40.5406C68.0553 40.297 67.7953 39.9392 67.6386 39.4596C67.608 39.3683 67.5812 39.2731 67.5621 39.178C67.5392 39.0828 67.5239 38.9686 67.5124 38.8392C67.501 38.7098 67.4895 38.5537 67.4857 38.371C67.478 38.1883 67.478 37.9714 67.478 37.7164C67.478 37.4613 67.478 37.2444 67.4857 37.0617C67.4933 36.879 67.501 36.7229 67.5124 36.5935C67.5239 36.4641 67.543 36.3499 67.5621 36.2548C67.5851 36.1596 67.608 36.0644 67.6386 35.9731C67.7953 35.4935 68.0553 35.1357 68.4184 34.8921C68.7816 34.6485 69.2212 34.5305 69.7449 34.5305C70.2686 34.5305 70.7197 34.6523 71.0828 34.8921C71.446 35.1357 71.7059 35.4935 71.8627 35.9731C71.8932 36.0644 71.92 36.1596 71.9391 36.2548C71.962 36.3499 71.9773 36.4641 71.9888 36.5935C72.0003 36.7229 72.0117 36.879 72.0156 37.0617C72.0194 37.2444 72.0232 37.4613 72.0232 37.7164C72.0232 37.9714 72.0232 38.1883 72.0156 38.371C72.0079 38.5537 72.0003 38.7098 71.9888 38.8392C71.9773 38.9686 71.9582 39.0828 71.9391 39.178C71.9162 39.2731 71.8932 39.3683 71.8627 39.4596C71.7059 39.9392 71.446 40.297 71.0828 40.5406C70.7197 40.7842 70.2762 40.9022 69.7449 40.9022ZM69.7449 40.1486C70.0927 40.1486 70.3756 40.0686 70.5935 39.9126C70.8114 39.7565 70.972 39.5282 71.0675 39.2313C71.0867 39.178 71.1019 39.1095 71.1172 39.0257C71.1325 38.942 71.1478 38.843 71.1631 38.7212C71.1784 38.5994 71.1899 38.4586 71.1937 38.2949C71.1975 38.1313 71.2013 37.9371 71.2013 37.7126C71.2013 37.488 71.2013 37.2939 71.1937 37.1302C71.186 36.9665 71.1784 36.8257 71.1631 36.7039C71.1478 36.5821 71.1325 36.4831 71.1172 36.3994C71.1019 36.3195 71.0867 36.251 71.0675 36.1939C70.972 35.897 70.8114 35.6686 70.5935 35.5125C70.3756 35.3565 70.0927 35.2765 69.7449 35.2765C69.397 35.2765 69.118 35.3565 68.9001 35.5125C68.6822 35.6686 68.5254 35.897 68.4299 36.1939C68.4108 36.2471 68.3955 36.3157 68.3802 36.3994C68.3649 36.4793 68.3496 36.5821 68.3343 36.7039C68.319 36.8257 68.3075 36.9665 68.3037 37.1302C68.2999 37.2939 68.2961 37.488 68.2961 37.7126C68.2961 37.9371 68.2961 38.1313 68.3037 38.2949C68.3114 38.4586 68.319 38.5994 68.3343 38.7212C68.3496 38.843 68.3649 38.942 68.3802 39.0257C68.3955 39.1095 68.4108 39.1742 68.4299 39.2313C68.5254 39.5282 68.6822 39.7565 68.9001 39.9126C69.1141 40.0686 69.397 40.1486 69.7449 40.1486Z" fill="#7D7150"/>
<path d="M73.4761 34.717C73.4761 34.6561 73.5067 34.6256 73.5678 34.6256H74.1603C74.233 34.6256 74.2827 34.6561 74.3056 34.717L76.1596 38.8772H76.1864L78.006 34.717C78.0289 34.6561 78.0786 34.6256 78.1512 34.6256H78.7437C78.8049 34.6256 78.8355 34.6561 78.8355 34.717V40.7118C78.8355 40.7727 78.8049 40.8032 78.7437 40.8032H78.1627C78.1015 40.8032 78.071 40.7727 78.071 40.7118V36.4146H78.0442L76.5075 39.8136C76.4769 39.8859 76.4234 39.9239 76.3431 39.9239H75.9799C75.8958 39.9239 75.8385 39.8859 75.8079 39.8136L74.2712 36.4146H74.2444V40.7118C74.2444 40.7727 74.2139 40.8032 74.1527 40.8032H73.5716C73.5105 40.8032 73.4799 40.7727 73.4799 40.7118V34.717H73.4761Z" fill="#7D7150"/>
<path d="M80.5024 34.717C80.5024 34.6561 80.533 34.6256 80.5942 34.6256H81.1867C81.2593 34.6256 81.309 34.6561 81.332 34.717L83.186 38.8772H83.2127L85.0323 34.717C85.0553 34.6561 85.105 34.6256 85.1776 34.6256H85.7701C85.8313 34.6256 85.8619 34.6561 85.8619 34.717V40.7118C85.8619 40.7727 85.8313 40.8032 85.7701 40.8032H85.1891C85.1279 40.8032 85.0973 40.7727 85.0973 40.7118V36.4146H85.0706L83.5338 39.8136C83.5033 39.8859 83.4497 39.9239 83.3695 39.9239H83.0063C82.9222 39.9239 82.8649 39.8859 82.8343 39.8136L81.2976 36.4146H81.2708V40.7118C81.2708 40.7727 81.2402 40.8032 81.1791 40.8032H80.598C80.5368 40.8032 80.5063 40.7727 80.5063 40.7118V34.717H80.5024Z" fill="#7D7150"/>
<path d="M87.5283 34.717C87.5283 34.6561 87.5589 34.6256 87.6201 34.6256H88.2585C88.3196 34.6256 88.3502 34.6561 88.3502 34.717V40.7118C88.3502 40.7727 88.3196 40.8032 88.2585 40.8032H87.6201C87.5589 40.8032 87.5283 40.7727 87.5283 40.7118V34.717Z" fill="#7D7150"/>
<path d="M91.8903 40.9022C91.6724 40.9022 91.4545 40.8793 91.2404 40.8375C91.0263 40.7956 90.8276 40.7385 90.6402 40.67C90.4529 40.6015 90.2771 40.5177 90.1204 40.4264C89.9636 40.3312 89.826 40.2361 89.7113 40.1295C89.6693 40.0876 89.6655 40.042 89.7037 39.9925L90.1051 39.5205C90.1433 39.4786 90.1853 39.4748 90.2312 39.5129C90.4338 39.6689 90.6823 39.8174 90.9805 39.9506C91.2786 40.0838 91.6074 40.1523 91.9667 40.1523C92.3987 40.1523 92.7351 40.0572 92.9759 39.8631C93.2167 39.6689 93.3352 39.4139 93.3352 39.1018C93.3352 38.9686 93.3123 38.8468 93.2703 38.7402C93.2282 38.6298 93.1556 38.5347 93.0562 38.4509C92.9568 38.3672 92.823 38.2949 92.6586 38.234C92.4942 38.1731 92.2878 38.1274 92.0394 38.097L91.7297 38.0513C90.5141 37.8876 89.9063 37.3205 89.9063 36.3423C89.9063 36.0682 89.9522 35.8208 90.0477 35.5962C90.1433 35.3717 90.2771 35.1813 90.4529 35.0253C90.6288 34.8692 90.8428 34.7474 91.0913 34.6637C91.3398 34.58 91.6189 34.5381 91.9323 34.5381C92.2955 34.5381 92.6472 34.5914 92.9759 34.698C93.3085 34.8045 93.5875 34.9416 93.8207 35.1128C93.8704 35.1509 93.8742 35.1928 93.8398 35.2384L93.5302 35.7371C93.492 35.7789 93.4499 35.7865 93.404 35.7561C93.1479 35.6 92.9033 35.482 92.6663 35.4059C92.4293 35.3298 92.177 35.2917 91.9094 35.2917C91.5271 35.2917 91.2328 35.3831 91.034 35.5696C90.8314 35.7561 90.732 35.9959 90.732 36.2928C90.732 36.5516 90.8276 36.7686 91.0225 36.9322C91.2175 37.0997 91.5539 37.2139 92.0355 37.2824L92.3375 37.3281C92.9453 37.4118 93.4002 37.5945 93.706 37.8724C94.0119 38.1502 94.1609 38.5461 94.1609 39.0523C94.1609 39.3264 94.1151 39.5738 94.0195 39.8022C93.9239 40.0305 93.7825 40.2247 93.5914 40.3883C93.4002 40.552 93.1632 40.6814 92.8803 40.7728C92.5975 40.8679 92.2687 40.9136 91.8979 40.9136L91.8903 40.9022Z" fill="#7D7150"/>
<path d="M97.4176 40.9022C97.1997 40.9022 96.9818 40.8793 96.7677 40.8375C96.5537 40.7956 96.3549 40.7385 96.1676 40.67C95.9803 40.6015 95.8044 40.5177 95.6477 40.4264C95.491 40.3312 95.3534 40.2361 95.2387 40.1295C95.1966 40.0876 95.1928 40.042 95.231 39.9925L95.6324 39.5205C95.6706 39.4786 95.7127 39.4748 95.7586 39.5129C95.9612 39.6689 96.2096 39.8174 96.5078 39.9506C96.806 40.0838 97.1347 40.1523 97.4941 40.1523C97.926 40.1523 98.2624 40.0572 98.5033 39.8631C98.7441 39.6689 98.8626 39.4139 98.8626 39.1018C98.8626 38.9686 98.8397 38.8468 98.7976 38.7402C98.7556 38.6298 98.6829 38.5347 98.5835 38.4509C98.4841 38.3672 98.3503 38.2949 98.186 38.234C98.0216 38.1731 97.8152 38.1274 97.5667 38.097L97.2571 38.0513C96.0414 37.8876 95.4336 37.3205 95.4336 36.3423C95.4336 36.0682 95.4795 35.8208 95.5751 35.5962C95.6706 35.3717 95.8044 35.1813 95.9803 35.0253C96.1561 34.8692 96.3702 34.7474 96.6187 34.6637C96.8671 34.58 97.1462 34.5381 97.4597 34.5381C97.8228 34.5381 98.1745 34.5914 98.5033 34.698C98.8358 34.8045 99.1149 34.9416 99.3481 35.1128C99.3978 35.1509 99.4016 35.1928 99.3672 35.2384L99.0575 35.7371C99.0193 35.7789 98.9773 35.7865 98.9314 35.7561C98.6753 35.6 98.4306 35.482 98.1936 35.4059C97.9566 35.3298 97.7043 35.2917 97.4367 35.2917C97.0545 35.2917 96.7601 35.3831 96.5613 35.5696C96.3587 35.7561 96.2593 35.9959 96.2593 36.2928C96.2593 36.5516 96.3549 36.7686 96.5499 36.9322C96.7448 37.0997 97.0812 37.2139 97.5629 37.2824L97.8649 37.3281C98.4727 37.4118 98.9276 37.5945 99.2334 37.8724C99.5392 38.1502 99.6883 38.5461 99.6883 39.0523C99.6883 39.3264 99.6424 39.5738 99.5469 39.8022C99.4513 40.0305 99.3098 40.2247 99.1187 40.3883C98.9276 40.552 98.6906 40.6814 98.4077 40.7728C98.1248 40.8679 97.7961 40.9136 97.4253 40.9136L97.4176 40.9022Z" fill="#7D7150"/>
<path d="M101.068 34.717C101.068 34.6561 101.099 34.6256 101.16 34.6256H101.798C101.86 34.6256 101.89 34.6561 101.89 34.717V40.7118C101.89 40.7727 101.86 40.8032 101.798 40.8032H101.16C101.099 40.8032 101.068 40.7727 101.068 40.7118V34.717Z" fill="#7D7150"/>
<path d="M105.602 40.9022C105.079 40.9022 104.635 40.7804 104.276 40.5406C103.913 40.297 103.653 39.9392 103.496 39.4596C103.465 39.3683 103.439 39.2731 103.42 39.178C103.397 39.0828 103.381 38.9686 103.37 38.8392C103.358 38.7098 103.347 38.5537 103.343 38.371C103.335 38.1883 103.335 37.9714 103.335 37.7164C103.335 37.4613 103.335 37.2444 103.343 37.0617C103.351 36.879 103.358 36.7229 103.37 36.5935C103.381 36.4641 103.4 36.3499 103.42 36.2548C103.442 36.1596 103.465 36.0644 103.496 35.9731C103.653 35.4935 103.913 35.1357 104.276 34.8921C104.639 34.6485 105.079 34.5305 105.602 34.5305C106.126 34.5305 106.577 34.6523 106.94 34.8921C107.303 35.1357 107.563 35.4935 107.72 35.9731C107.751 36.0644 107.777 36.1596 107.797 36.2548C107.819 36.3499 107.835 36.4641 107.846 36.5935C107.858 36.7229 107.869 36.879 107.873 37.0617C107.877 37.2444 107.881 37.4613 107.881 37.7164C107.881 37.9714 107.881 38.1883 107.873 38.371C107.865 38.5537 107.858 38.7098 107.846 38.8392C107.835 38.9686 107.816 39.0828 107.797 39.178C107.774 39.2731 107.751 39.3683 107.72 39.4596C107.563 39.9392 107.303 40.297 106.94 40.5406C106.577 40.7842 106.134 40.9022 105.602 40.9022ZM105.602 40.1486C105.95 40.1486 106.233 40.0686 106.451 39.9126C106.669 39.7565 106.829 39.5282 106.925 39.2313C106.944 39.178 106.959 39.1095 106.975 39.0257C106.99 38.942 107.005 38.843 107.021 38.7212C107.036 38.5994 107.047 38.4586 107.051 38.2949C107.055 38.1313 107.059 37.9371 107.059 37.7126C107.059 37.488 107.059 37.2939 107.051 37.1302C107.043 36.9665 107.036 36.8257 107.021 36.7039C107.005 36.5821 106.99 36.4831 106.975 36.3994C106.959 36.3195 106.944 36.251 106.925 36.1939C106.829 35.897 106.669 35.6686 106.451 35.5125C106.233 35.3565 105.95 35.2765 105.602 35.2765C105.254 35.2765 104.975 35.3565 104.757 35.5125C104.54 35.6686 104.383 35.897 104.287 36.1939C104.268 36.2471 104.253 36.3157 104.238 36.3994C104.222 36.4793 104.207 36.5821 104.192 36.7039C104.176 36.8257 104.165 36.9665 104.161 37.1302C104.157 37.2939 104.154 37.488 104.154 37.7126C104.154 37.9371 104.154 38.1313 104.161 38.2949C104.169 38.4586 104.176 38.5994 104.192 38.7212C104.207 38.843 104.222 38.942 104.238 39.0257C104.253 39.1095 104.268 39.1742 104.287 39.2313C104.383 39.5282 104.54 39.7565 104.757 39.9126C104.972 40.0686 105.254 40.1486 105.602 40.1486Z" fill="#7D7150"/>
<path d="M109.333 34.717C109.333 34.6561 109.364 34.6256 109.425 34.6256H110.01C110.082 34.6256 110.136 34.6561 110.166 34.717L112.976 39.3492H113.014V34.717C113.014 34.6561 113.045 34.6256 113.106 34.6256H113.687C113.748 34.6256 113.779 34.6561 113.779 34.717V40.7118C113.779 40.7727 113.748 40.8032 113.687 40.8032H113.102C113.03 40.8032 112.976 40.7727 112.945 40.7118L110.128 36.0986H110.101V40.7118C110.101 40.7727 110.071 40.8032 110.01 40.8032H109.429C109.367 40.8032 109.337 40.7727 109.337 40.7118V34.717H109.333Z" fill="#7D7150"/>
<path d="M117.762 34.717C117.762 34.6561 117.793 34.6256 117.854 34.6256H121.593C121.654 34.6256 121.684 34.6561 121.684 34.717V35.2879C121.684 35.3488 121.654 35.3793 121.593 35.3793H118.638C118.603 35.3793 118.584 35.3983 118.584 35.4325V37.3128C118.584 37.3509 118.603 37.3661 118.638 37.3661H121.145C121.206 37.3661 121.237 37.3966 121.237 37.4575V38.0284C121.237 38.0893 121.206 38.1198 121.145 38.1198H118.638C118.603 38.1198 118.584 38.1388 118.584 38.1731V40.708C118.584 40.7689 118.554 40.7994 118.492 40.7994H117.854C117.793 40.7994 117.762 40.7689 117.762 40.708V34.7132V34.717Z" fill="#7D7150"/>
<path d="M125.025 40.9022C124.501 40.9022 124.058 40.7804 123.699 40.5406C123.336 40.297 123.076 39.9392 122.919 39.4596C122.888 39.3683 122.862 39.2731 122.842 39.178C122.819 39.0828 122.804 38.9686 122.793 38.8392C122.781 38.7098 122.77 38.5537 122.766 38.371C122.758 38.1883 122.758 37.9714 122.758 37.7164C122.758 37.4613 122.758 37.2444 122.766 37.0617C122.774 36.879 122.781 36.7229 122.793 36.5935C122.804 36.4641 122.823 36.3499 122.842 36.2548C122.865 36.1596 122.888 36.0644 122.919 35.9731C123.076 35.4935 123.336 35.1357 123.699 34.8921C124.062 34.6485 124.501 34.5305 125.025 34.5305C125.549 34.5305 126 34.6523 126.363 34.8921C126.726 35.1357 126.986 35.4935 127.143 35.9731C127.174 36.0644 127.2 36.1596 127.219 36.2548C127.242 36.3499 127.258 36.4641 127.269 36.5935C127.281 36.7229 127.292 36.879 127.296 37.0617C127.3 37.2444 127.303 37.4613 127.303 37.7164C127.303 37.9714 127.303 38.1883 127.296 38.371C127.288 38.5537 127.281 38.7098 127.269 38.8392C127.258 38.9686 127.238 39.0828 127.219 39.178C127.196 39.2731 127.174 39.3683 127.143 39.4596C126.986 39.9392 126.726 40.297 126.363 40.5406C126 40.7842 125.557 40.9022 125.025 40.9022ZM125.025 40.1486C125.373 40.1486 125.656 40.0686 125.874 39.9126C126.092 39.7565 126.252 39.5282 126.348 39.2313C126.367 39.178 126.382 39.1095 126.398 39.0257C126.413 38.942 126.428 38.843 126.443 38.7212C126.459 38.5994 126.47 38.4586 126.474 38.2949C126.478 38.1313 126.482 37.9371 126.482 37.7126C126.482 37.488 126.482 37.2939 126.474 37.1302C126.466 36.9665 126.459 36.8257 126.443 36.7039C126.428 36.5821 126.413 36.4831 126.398 36.3994C126.382 36.3195 126.367 36.251 126.348 36.1939C126.252 35.897 126.092 35.6686 125.874 35.5125C125.656 35.3565 125.373 35.2765 125.025 35.2765C124.677 35.2765 124.398 35.3565 124.18 35.5125C123.962 35.6686 123.806 35.897 123.71 36.1939C123.691 36.2471 123.676 36.3157 123.66 36.3994C123.645 36.4793 123.63 36.5821 123.615 36.7039C123.599 36.8257 123.588 36.9665 123.584 37.1302C123.58 37.2939 123.576 37.488 123.576 37.7126C123.576 37.9371 123.576 38.1313 123.584 38.2949C123.592 38.4586 123.599 38.5994 123.615 38.7212C123.63 38.843 123.645 38.942 123.66 39.0257C123.676 39.1095 123.691 39.1742 123.71 39.2313C123.806 39.5282 123.962 39.7565 124.18 39.9126C124.394 40.0686 124.677 40.1486 125.025 40.1486Z" fill="#7D7150"/>
<path d="M132.354 40.8032C132.3 40.8032 132.258 40.7727 132.235 40.7118L131 38.1883H129.636C129.601 38.1883 129.582 38.2073 129.582 38.2416V40.7118C129.582 40.7727 129.552 40.8032 129.49 40.8032H128.852C128.791 40.8032 128.76 40.7727 128.76 40.7118V34.717C128.76 34.6561 128.791 34.6256 128.852 34.6256H131.1C131.39 34.6256 131.658 34.6675 131.895 34.7512C132.132 34.835 132.338 34.9568 132.507 35.109C132.679 35.2651 132.808 35.4516 132.904 35.6723C133 35.8931 133.046 36.1367 133.046 36.4031C133.046 36.8218 132.935 37.1758 132.717 37.4651C132.499 37.7544 132.201 37.9599 131.822 38.0817L133.145 40.689C133.164 40.7195 133.168 40.7461 133.153 40.7651C133.141 40.788 133.118 40.7956 133.088 40.7956H132.35L132.354 40.8032ZM131.077 37.4346C131.44 37.4346 131.723 37.3471 131.922 37.1682C132.12 36.9893 132.22 36.7381 132.22 36.4108C132.22 36.0834 132.12 35.8322 131.922 35.6533C131.723 35.4744 131.44 35.3869 131.077 35.3869H129.632C129.597 35.3869 129.578 35.4059 129.578 35.4402V37.3852C129.578 37.4232 129.597 37.4384 129.632 37.4384H131.077V37.4346Z" fill="#7D7150"/>
<path d="M9.31982 44.2174C9.31982 44.1565 9.35041 44.1261 9.41157 44.1261H10.0041C10.0767 44.1261 10.1264 44.1565 10.1493 44.2174L12.0034 48.3777H12.0301L13.8497 44.2174C13.8727 44.1565 13.9224 44.1261 13.995 44.1261H14.5875C14.6487 44.1261 14.6792 44.1565 14.6792 44.2174V50.2123C14.6792 50.2732 14.6487 50.3037 14.5875 50.3037H14.0065C13.9453 50.3037 13.9147 50.2732 13.9147 50.2123V45.915H13.8879L12.3512 49.314C12.3206 49.3864 12.2671 49.4244 12.1868 49.4244H11.8237C11.7396 49.4244 11.6823 49.3864 11.6517 49.314L10.1149 45.915H10.0882V50.2123C10.0882 50.2732 10.0576 50.3037 9.99644 50.3037H9.41539C9.35423 50.3037 9.32365 50.2732 9.32365 50.2123V44.2174H9.31982Z" fill="#7D7150"/>
<path d="M17.9516 44.2174C17.9707 44.1565 18.0051 44.1261 18.0625 44.1261H18.655C18.7162 44.1261 18.7544 44.1565 18.7735 44.2174L20.8989 50.2123C20.918 50.2732 20.8989 50.3037 20.8339 50.3037H20.1956C20.1344 50.3037 20.0962 50.2732 20.077 50.2123L19.603 48.8687H17.0953L16.6213 50.2123C16.5984 50.2732 16.5563 50.3037 16.5028 50.3037H15.8644C15.8033 50.3037 15.7842 50.2732 15.7994 50.2123L17.9516 44.2174ZM19.3393 48.1151L18.3645 45.3175H18.3454L17.3591 48.1151H19.3393Z" fill="#7D7150"/>
<path d="M22.0229 44.2174C22.0229 44.1565 22.0535 44.1261 22.1147 44.1261H22.7531C22.8142 44.1261 22.8448 44.1565 22.8448 44.2174V47.4338L25.4825 44.2098C25.5207 44.1565 25.5666 44.1299 25.6278 44.1299H26.377C26.4076 44.1299 26.4267 44.1413 26.4382 44.1604C26.4458 44.1832 26.4382 44.206 26.4152 44.2365L24.4809 46.5545L26.6064 50.2047C26.6484 50.2732 26.6293 50.3037 26.5528 50.3037H25.8227C25.7692 50.3037 25.7271 50.277 25.6966 50.2237L23.9534 47.1787L22.8487 48.5033V50.2123C22.8487 50.2732 22.8181 50.3037 22.7569 50.3037H22.1185C22.0574 50.3037 22.0268 50.2732 22.0268 50.2123V44.2174H22.0229Z" fill="#7D7150"/>
<path d="M27.7798 44.2174C27.7798 44.1565 27.8104 44.1261 27.8715 44.1261H28.5099C28.5711 44.1261 28.6017 44.1565 28.6017 44.2174V47.4338L31.2393 44.2098C31.2776 44.1565 31.3234 44.1299 31.3846 44.1299H32.1338C32.1644 44.1299 32.1835 44.1413 32.195 44.1604C32.2026 44.1832 32.195 44.206 32.1721 44.2365L30.2378 46.5545L32.3632 50.2047C32.4052 50.2732 32.3861 50.3037 32.3097 50.3037H31.5795C31.526 50.3037 31.484 50.277 31.4534 50.2237L29.7102 47.1787L28.6055 48.5033V50.2123C28.6055 50.2732 28.5749 50.3037 28.5137 50.3037H27.8754C27.8142 50.3037 27.7836 50.2732 27.7836 50.2123V44.2174H27.7798Z" fill="#7D7150"/>
<path d="M35.1421 44.2174C35.1612 44.1565 35.1956 44.1261 35.2529 44.1261H35.8454C35.9066 44.1261 35.9448 44.1565 35.9639 44.2174L38.0894 50.2123C38.1085 50.2732 38.0894 50.3037 38.0244 50.3037H37.386C37.3248 50.3037 37.2866 50.2732 37.2675 50.2123L36.7935 48.8687H34.2858L33.8118 50.2123C33.7888 50.2732 33.7468 50.3037 33.6933 50.3037H33.0549C32.9937 50.3037 32.9746 50.2732 32.9899 50.2123L35.1421 44.2174ZM36.5259 48.1151L35.5511 45.3175H35.532L34.5457 48.1151H36.5259Z" fill="#7D7150"/>
<path d="M39.2095 44.2174C39.2095 44.1565 39.2401 44.1261 39.3012 44.1261H39.9396C40.0008 44.1261 40.0314 44.1565 40.0314 44.2174V46.7524C40.0314 46.7905 40.0505 46.8057 40.0849 46.8057H42.7684C42.8028 46.8057 42.8219 46.7867 42.8219 46.7524V44.2174C42.8219 44.1565 42.8525 44.1261 42.9137 44.1261H43.5521C43.6132 44.1261 43.6438 44.1565 43.6438 44.2174V50.2123C43.6438 50.2732 43.6132 50.3037 43.5521 50.3037H42.9137C42.8525 50.3037 42.8219 50.2732 42.8219 50.2123V47.6126C42.8219 47.5746 42.8028 47.5594 42.7684 47.5594H40.0849C40.0505 47.5594 40.0314 47.5784 40.0314 47.6126V50.2123C40.0314 50.2732 40.0008 50.3037 39.9396 50.3037H39.3012C39.2401 50.3037 39.2095 50.2732 39.2095 50.2123V44.2174Z" fill="#7D7150"/>
<path d="M47.5775 48.9488C47.547 48.8574 47.5202 48.7661 47.5011 48.6709C47.4782 48.5757 47.4629 48.4654 47.4514 48.3359C47.4399 48.2065 47.4285 48.0505 47.4246 47.8678C47.417 47.6851 47.417 47.4681 47.417 47.2131C47.417 46.9581 47.417 46.7411 47.4246 46.5584C47.4323 46.3757 47.4399 46.2197 47.4514 46.0902C47.4629 45.9608 47.482 45.8466 47.5011 45.7553C47.524 45.6601 47.547 45.5688 47.5775 45.4774C47.7343 44.9864 47.9904 44.621 48.3421 44.3812C48.6938 44.1414 49.1257 44.0234 49.638 44.0234C50.1005 44.0234 50.5019 44.13 50.8459 44.347C51.19 44.5639 51.4499 44.8684 51.6258 45.2681C51.6449 45.3214 51.6334 45.3632 51.5876 45.3861L51.0409 45.6487C50.9797 45.6792 50.9377 45.6639 50.9148 45.603C50.7924 45.3594 50.6319 45.1615 50.4331 45.0093C50.2305 44.8532 49.9667 44.7771 49.638 44.7771C49.3092 44.7771 49.0225 44.857 48.8161 45.0131C48.6097 45.1691 48.4529 45.3937 48.3497 45.6868C48.3306 45.7553 48.3153 45.8238 48.3 45.8999C48.2847 45.9761 48.2733 46.0712 48.2618 46.1816C48.2542 46.292 48.2465 46.4328 48.2389 46.6003C48.2312 46.7678 48.2312 46.9695 48.2312 47.2131C48.2312 47.4567 48.2312 47.6584 48.2389 47.8259C48.2465 47.9934 48.2542 48.1304 48.2618 48.2446C48.2695 48.355 48.2847 48.4539 48.3 48.5301C48.3153 48.61 48.3306 48.6785 48.3497 48.7394C48.4529 49.0287 48.6097 49.2533 48.8161 49.4131C49.0225 49.5692 49.2978 49.6491 49.638 49.6491C49.9782 49.6491 50.2305 49.573 50.4331 49.4169C50.6357 49.2609 50.7963 49.0629 50.9148 48.8231C50.9377 48.7622 50.9836 48.747 51.0409 48.7775L51.5876 49.0401C51.6296 49.0629 51.6411 49.1048 51.6258 49.1581C51.4499 49.5578 51.19 49.8661 50.8459 50.0792C50.5019 50.2962 50.1005 50.4028 49.638 50.4028C49.1257 50.4028 48.6938 50.2848 48.3421 50.045C47.9904 49.8052 47.7343 49.4398 47.5775 48.9488Z" fill="#7D7150"/>
<path d="M52.9331 44.2174C52.9331 44.1565 52.9637 44.1261 53.0249 44.1261H53.6632C53.7244 44.1261 53.755 44.1565 53.755 44.2174V50.2123C53.755 50.2732 53.7244 50.3037 53.6632 50.3037H53.0249C52.9637 50.3037 52.9331 50.2732 52.9331 50.2123V44.2174Z" fill="#7D7150"/>
<path d="M56.7824 50.3037C56.7213 50.3037 56.6907 50.2732 56.6907 50.2123V44.933C56.6907 44.895 56.6716 44.8797 56.6372 44.8797H54.9399C54.8787 44.8797 54.8481 44.8493 54.8481 44.7884V44.2174C54.8481 44.1565 54.8787 44.1261 54.9399 44.1261H59.2634C59.3245 44.1261 59.3551 44.1565 59.3551 44.2174V44.7884C59.3551 44.8493 59.3245 44.8797 59.2634 44.8797H57.5661C57.5279 44.8797 57.5126 44.8988 57.5126 44.933V50.2123C57.5126 50.2732 57.482 50.3037 57.4208 50.3037H56.7824Z" fill="#7D7150"/>
<path d="M61.7711 50.3037C61.71 50.3037 61.6794 50.2732 61.6794 50.2123V47.7763L59.8445 44.2251C59.8215 44.1604 59.8445 44.1261 59.9171 44.1261H60.5631C60.6167 44.1261 60.6625 44.1565 60.7008 44.2174L62.0884 46.8628H62.1075L63.4837 44.2174C63.5066 44.1565 63.5487 44.1261 63.6098 44.1261H64.2406C64.3132 44.1261 64.3361 44.1604 64.3132 44.2251L62.4783 47.7763V50.2123C62.4783 50.2732 62.4477 50.3037 62.3866 50.3037H61.7673H61.7711Z" fill="#7D7150"/>
<path d="M69.1528 44.2174C69.1719 44.1565 69.2063 44.1261 69.2637 44.1261H69.8562C69.9173 44.1261 69.9556 44.1565 69.9747 44.2174L72.1001 50.2123C72.1192 50.2732 72.1001 50.3037 72.0351 50.3037H71.3967C71.3356 50.3037 71.2973 50.2732 71.2782 50.2123L70.8042 48.8687H68.2965L67.8225 50.2123C67.7996 50.2732 67.7575 50.3037 67.704 50.3037H67.0656C67.0044 50.3037 66.9853 50.2732 67.0006 50.2123L69.1528 44.2174ZM70.5404 48.1151L69.5656 45.3175H69.5465L68.5603 48.1151H70.5404Z" fill="#7D7150"/>
<path d="M73.2241 44.2174C73.2241 44.1565 73.2547 44.1261 73.3159 44.1261H73.9007C73.9734 44.1261 74.0269 44.1565 74.0575 44.2174L76.8672 48.8497H76.9054V44.2174C76.9054 44.1565 76.936 44.1261 76.9971 44.1261H77.5782C77.6393 44.1261 77.6699 44.1565 77.6699 44.2174V50.2123C77.6699 50.2732 77.6393 50.3037 77.5782 50.3037H76.9933C76.9207 50.3037 76.8671 50.2732 76.8366 50.2123L74.0192 45.5991H73.9925V50.2123C73.9925 50.2732 73.9619 50.3037 73.9007 50.3037H73.3197C73.2585 50.3037 73.2279 50.2732 73.2279 50.2123V44.2174H73.2241Z" fill="#7D7150"/>
<path d="M79.3247 44.2174C79.3247 44.1565 79.3553 44.1261 79.4165 44.1261H81.5075C82.5702 44.1261 83.2468 44.5638 83.5335 45.4431C83.5564 45.5268 83.5794 45.6144 83.6023 45.7057C83.6252 45.7971 83.6405 45.9074 83.6558 46.0407C83.6711 46.1739 83.6826 46.3337 83.6864 46.5202C83.6941 46.7068 83.6941 46.9389 83.6941 47.2092C83.6941 47.4794 83.6941 47.7116 83.6864 47.8981C83.6788 48.0846 83.6711 48.2483 83.6558 48.3777C83.6405 48.5109 83.6214 48.6213 83.6023 48.7127C83.5832 48.804 83.5564 48.8916 83.5335 48.9753C83.2468 49.8545 82.574 50.2923 81.5075 50.2923H79.4165C79.3553 50.2923 79.3247 50.2618 79.3247 50.2009V44.206V44.2174ZM80.1466 49.4929C80.1466 49.531 80.1657 49.5462 80.2001 49.5462H81.3354C81.7101 49.5462 82.0159 49.4815 82.2452 49.3521C82.4746 49.2227 82.6428 49.0057 82.746 48.7012C82.7651 48.648 82.7804 48.5832 82.7995 48.5109C82.8187 48.4386 82.8301 48.3473 82.8416 48.2331C82.8492 48.1227 82.8569 47.9819 82.8645 47.8182C82.8722 47.6545 82.8722 47.4528 82.8722 47.2092C82.8722 46.9656 82.8722 46.7638 82.8645 46.6002C82.8569 46.4365 82.8492 46.2995 82.8416 46.1853C82.8339 46.0749 82.8187 45.9798 82.7995 45.9074C82.7804 45.8351 82.7613 45.7704 82.746 45.7171C82.6428 45.4126 82.4746 45.1995 82.2452 45.0662C82.0159 44.9368 81.7101 44.8721 81.3354 44.8721H80.2001C80.1657 44.8721 80.1466 44.8912 80.1466 44.9254V49.4853V49.4929Z" fill="#7D7150"/>
<path d="M87.4712 44.2174C87.4712 44.1565 87.5018 44.1261 87.5629 44.1261H88.2013C88.2625 44.1261 88.2931 44.1565 88.2931 44.2174V46.7524C88.2931 46.7905 88.3122 46.8057 88.3466 46.8057H91.0301C91.0645 46.8057 91.0836 46.7867 91.0836 46.7524V44.2174C91.0836 44.1565 91.1142 44.1261 91.1754 44.1261H91.8138C91.8749 44.1261 91.9055 44.1565 91.9055 44.2174V50.2123C91.9055 50.2732 91.8749 50.3037 91.8138 50.3037H91.1754C91.1142 50.3037 91.0836 50.2732 91.0836 50.2123V47.6126C91.0836 47.5746 91.0645 47.5594 91.0301 47.5594H88.3466C88.3122 47.5594 88.2931 47.5784 88.2931 47.6126V50.2123C88.2931 50.2732 88.2625 50.3037 88.2013 50.3037H87.5629C87.5018 50.3037 87.4712 50.2732 87.4712 50.2123V44.2174Z" fill="#7D7150"/>
<path d="M95.6209 50.4027C95.0972 50.4027 94.6537 50.2809 94.2944 50.0411C93.9312 49.7975 93.6713 49.4397 93.5146 48.9601C93.484 48.8688 93.4572 48.7736 93.4381 48.6785C93.4152 48.5833 93.3999 48.4691 93.3884 48.3397C93.3769 48.2103 93.3655 48.0542 93.3616 47.8715C93.354 47.6888 93.354 47.4719 93.354 47.2169C93.354 46.9618 93.354 46.7449 93.3616 46.5622C93.3693 46.3795 93.3769 46.2234 93.3884 46.094C93.3999 45.9646 93.419 45.8504 93.4381 45.7552C93.461 45.6601 93.484 45.5649 93.5146 45.4736C93.6713 44.994 93.9312 44.6362 94.2944 44.3926C94.6575 44.149 95.0972 44.031 95.6209 44.031C96.1446 44.031 96.5956 44.1528 96.9588 44.3926C97.322 44.6362 97.5819 44.994 97.7386 45.4736C97.7692 45.5649 97.796 45.6601 97.8151 45.7552C97.838 45.8504 97.8533 45.9646 97.8648 46.094C97.8763 46.2234 97.8877 46.3795 97.8915 46.5622C97.8954 46.7449 97.8992 46.9618 97.8992 47.2169C97.8992 47.4719 97.8992 47.6888 97.8915 47.8715C97.8839 48.0542 97.8763 48.2103 97.8648 48.3397C97.8533 48.4691 97.8342 48.5833 97.8151 48.6785C97.7922 48.7736 97.7692 48.8688 97.7386 48.9601C97.5819 49.4397 97.322 49.7975 96.9588 50.0411C96.5956 50.2847 96.1522 50.4027 95.6209 50.4027ZM95.6209 49.6491C95.9687 49.6491 96.2516 49.5691 96.4695 49.4131C96.6874 49.257 96.8479 49.0286 96.9435 48.7318C96.9626 48.6785 96.9779 48.61 96.9932 48.5262C97.0085 48.4425 97.0238 48.3435 97.0391 48.2217C97.0544 48.0999 97.0658 47.9591 97.0697 47.7954C97.0735 47.6317 97.0773 47.4376 97.0773 47.2131C97.0773 46.9885 97.0773 46.7944 97.0697 46.6307C97.062 46.467 97.0544 46.3262 97.0391 46.2044C97.0238 46.0826 97.0085 45.9836 96.9932 45.8999C96.9779 45.82 96.9626 45.7514 96.9435 45.6943C96.8479 45.3975 96.6874 45.1691 96.4695 45.013C96.2516 44.857 95.9687 44.777 95.6209 44.777C95.273 44.777 94.9939 44.857 94.776 45.013C94.5581 45.1691 94.4014 45.3975 94.3059 45.6943C94.2867 45.7476 94.2715 45.8161 94.2562 45.8999C94.2409 45.9798 94.2256 46.0826 94.2103 46.2044C94.195 46.3262 94.1835 46.467 94.1797 46.6307C94.1759 46.7944 94.1721 46.9885 94.1721 47.2131C94.1721 47.4376 94.1721 47.6317 94.1797 47.7954C94.1873 47.9591 94.195 48.0999 94.2103 48.2217C94.2256 48.3435 94.2409 48.4425 94.2562 48.5262C94.2715 48.61 94.2867 48.6747 94.3059 48.7318C94.4014 49.0286 94.5581 49.257 94.776 49.4131C94.9901 49.5691 95.273 49.6491 95.6209 49.6491Z" fill="#7D7150"/>
<path d="M99.3521 44.2174C99.3521 44.1565 99.3826 44.1261 99.4438 44.1261H100.082C100.143 44.1261 100.174 44.1565 100.174 44.2174V49.4967C100.174 49.5348 100.193 49.55 100.227 49.55H103.182C103.244 49.55 103.274 49.5805 103.274 49.6414V50.2123C103.274 50.2732 103.244 50.3037 103.182 50.3037H99.4438C99.3826 50.3037 99.3521 50.2732 99.3521 50.2123V44.2174Z" fill="#7D7150"/>
<path d="M104.899 50.3037C104.837 50.3037 104.807 50.2732 104.807 50.2123V47.7763L102.972 44.2251C102.949 44.1604 102.972 44.1261 103.045 44.1261H103.691C103.744 44.1261 103.79 44.1565 103.828 44.2174L105.216 46.8628H105.235L106.611 44.2174C106.634 44.1565 106.676 44.1261 106.737 44.1261H107.368C107.441 44.1261 107.464 44.1604 107.441 44.2251L105.606 47.7763V50.2123C105.606 50.2732 105.575 50.3037 105.514 50.3037H104.895H104.899Z" fill="#7D7150"/>
<path d="M112.552 50.4027C112.334 50.4027 112.116 50.3798 111.902 50.338C111.688 50.2961 111.489 50.239 111.302 50.1705C111.115 50.102 110.939 50.0182 110.782 49.9269C110.625 49.8317 110.488 49.7366 110.373 49.63C110.331 49.5881 110.327 49.5424 110.365 49.493L110.767 49.021C110.805 48.9791 110.847 48.9753 110.893 49.0134C111.095 49.1694 111.344 49.3179 111.642 49.4511C111.94 49.5843 112.269 49.6528 112.628 49.6528C113.06 49.6528 113.397 49.5577 113.638 49.3636C113.878 49.1694 113.997 48.9144 113.997 48.6023C113.997 48.4691 113.974 48.3473 113.932 48.2407C113.89 48.1303 113.817 48.0352 113.718 47.9514C113.618 47.8677 113.485 47.7954 113.32 47.7345C113.156 47.6736 112.949 47.6279 112.701 47.5974L112.391 47.5518C111.176 47.3881 110.568 46.821 110.568 45.8428C110.568 45.5687 110.614 45.3213 110.709 45.0967C110.805 44.8722 110.939 44.6818 111.115 44.5258C111.29 44.3697 111.504 44.2479 111.753 44.1642C112.001 44.0804 112.28 44.0386 112.594 44.0386C112.957 44.0386 113.309 44.0919 113.638 44.1984C113.97 44.305 114.249 44.442 114.482 44.6133C114.532 44.6514 114.536 44.6933 114.501 44.7389L114.192 45.2376C114.154 45.2794 114.112 45.287 114.066 45.2566C113.81 45.1005 113.565 44.9825 113.328 44.9064C113.091 44.8303 112.839 44.7922 112.571 44.7922C112.189 44.7922 111.894 44.8836 111.696 45.0701C111.493 45.2566 111.394 45.4964 111.394 45.7933C111.394 46.0521 111.489 46.2691 111.684 46.4327C111.879 46.6002 112.215 46.7144 112.697 46.7829L112.999 46.8286C113.607 46.9123 114.062 47.095 114.368 47.3729C114.673 47.6507 114.823 48.0466 114.823 48.5528C114.823 48.8269 114.777 49.0743 114.681 49.3027C114.586 49.531 114.444 49.7252 114.253 49.8888C114.062 50.0525 113.825 50.1819 113.542 50.2733C113.259 50.3684 112.93 50.4141 112.56 50.4141L112.552 50.4027Z" fill="#7D7150"/>
<path d="M116.203 44.2174C116.203 44.1565 116.233 44.1261 116.294 44.1261H116.933C116.994 44.1261 117.025 44.1565 117.025 44.2174V50.2123C117.025 50.2732 116.994 50.3037 116.933 50.3037H116.294C116.233 50.3037 116.203 50.2732 116.203 50.2123V44.2174Z" fill="#7D7150"/>
<path d="M120.052 50.3037C119.991 50.3037 119.96 50.2732 119.96 50.2123V44.933C119.96 44.895 119.941 44.8797 119.907 44.8797H118.209C118.148 44.8797 118.118 44.8493 118.118 44.7884V44.2174C118.118 44.1565 118.148 44.1261 118.209 44.1261H122.533C122.594 44.1261 122.625 44.1565 122.625 44.2174V44.7884C122.625 44.8493 122.594 44.8797 122.533 44.8797H120.836C120.797 44.8797 120.782 44.8988 120.782 44.933V50.2123C120.782 50.2732 120.752 50.3037 120.69 50.3037H120.052Z" fill="#7D7150"/>
<path d="M123.722 44.2174C123.722 44.1565 123.752 44.1261 123.813 44.1261H127.552C127.613 44.1261 127.644 44.1565 127.644 44.2174V44.7884C127.644 44.8493 127.613 44.8797 127.552 44.8797H124.597C124.563 44.8797 124.544 44.8988 124.544 44.933V46.7486C124.544 46.7867 124.563 46.8019 124.597 46.8019H127.105C127.166 46.8019 127.197 46.8324 127.197 46.8933V47.4642C127.197 47.5251 127.166 47.5556 127.105 47.5556H124.597C124.563 47.5556 124.544 47.5746 124.544 47.6088V49.4891C124.544 49.5272 124.563 49.5424 124.597 49.5424H127.552C127.613 49.5424 127.644 49.5729 127.644 49.6338V50.2047C127.644 50.2656 127.613 50.2961 127.552 50.2961H123.813C123.752 50.2961 123.722 50.2656 123.722 50.2047V44.2098V44.2174Z" fill="#7D7150"/>
<path d="M130.874 50.4027C130.656 50.4027 130.438 50.3798 130.224 50.338C130.01 50.2961 129.811 50.239 129.624 50.1705C129.437 50.102 129.261 50.0182 129.104 49.9269C128.948 49.8317 128.81 49.7366 128.695 49.63C128.653 49.5881 128.649 49.5424 128.688 49.493L129.089 49.021C129.127 48.9791 129.169 48.9753 129.215 49.0134C129.418 49.1694 129.666 49.3179 129.964 49.4511C130.263 49.5843 130.591 49.6528 130.951 49.6528C131.383 49.6528 131.719 49.5577 131.96 49.3636C132.201 49.1694 132.319 48.9144 132.319 48.6023C132.319 48.4691 132.296 48.3473 132.254 48.2407C132.212 48.1303 132.139 48.0352 132.04 47.9514C131.941 47.8677 131.807 47.7954 131.643 47.7345C131.478 47.6736 131.272 47.6279 131.023 47.5974L130.714 47.5518C129.498 47.3881 128.89 46.821 128.89 45.8428C128.89 45.5687 128.936 45.3213 129.032 45.0967C129.127 44.8722 129.261 44.6818 129.437 44.5258C129.613 44.3697 129.827 44.2479 130.075 44.1642C130.324 44.0804 130.603 44.0386 130.916 44.0386C131.279 44.0386 131.631 44.0919 131.96 44.1984C132.292 44.305 132.571 44.442 132.805 44.6133C132.854 44.6514 132.858 44.6933 132.824 44.7389L132.514 45.2376C132.476 45.2794 132.434 45.287 132.388 45.2566C132.132 45.1005 131.887 44.9825 131.65 44.9064C131.413 44.8303 131.161 44.7922 130.893 44.7922C130.511 44.7922 130.217 44.8836 130.018 45.0701C129.815 45.2566 129.716 45.4964 129.716 45.7933C129.716 46.0521 129.811 46.2691 130.006 46.4327C130.201 46.6002 130.538 46.7144 131.019 46.7829L131.321 46.8286C131.929 46.9123 132.384 47.095 132.69 47.3729C132.996 47.6507 133.145 48.0466 133.145 48.5528C133.145 48.8269 133.099 49.0743 133.003 49.3027C132.908 49.531 132.766 49.7252 132.575 49.8888C132.384 50.0525 132.147 50.1819 131.864 50.2733C131.581 50.3684 131.253 50.4141 130.882 50.4141L130.874 50.4027Z" fill="#7D7150"/>
<path d="M12.8446 8.64014C12.4662 8.64014 12.1565 8.95606 12.1565 9.32527C12.1565 9.69447 12.4547 10.0104 12.8446 10.0104C13.2345 10.0104 13.5289 9.69447 13.5289 9.32527C13.5289 8.95606 13.2116 8.64014 12.8446 8.64014ZM11.155 8.64014C10.7765 8.64014 10.4707 8.95606 10.4707 9.32527C10.4707 9.69447 10.7536 10.0104 11.155 10.0104C11.5563 10.0104 11.8392 9.70589 11.8392 9.32527C11.8392 8.94464 11.5372 8.64014 11.155 8.64014Z" fill="#09090B"/>
<path d="M26.3046 10.5852C24.4773 10.5852 23.5599 11.8032 23.5599 13.1354C23.5599 13.8777 23.7586 14.3458 24.1447 14.6351C24.095 14.6237 23.8848 14.5628 23.5599 14.5628H21.8397C21.7364 12.5455 20.8381 11.4949 19.5078 10.8973L22.0805 9.35199V7.97412L17.9023 10.5814V11.6015C19.5843 11.9897 20.4253 12.9337 20.4788 14.5628H14.3472V10.9468C14.3472 10.9468 13.3877 10.5814 12.13 10.5814C10.1957 10.5814 9.34326 11.8413 9.34326 13.2154C9.34326 14.7074 10.1154 15.6552 12.1606 15.6552H28.6899V12.9946C28.6899 11.5216 27.9521 10.5776 26.3046 10.5776M12.9939 14.5666H12.3211C11.2126 14.5666 10.7385 14.0489 10.7385 13.0936C10.7385 12.2752 11.2011 11.6776 11.9924 11.6776C12.5964 11.6776 12.9939 11.8641 12.9939 11.8641V14.5666ZM27.329 14.5666H26.5263C25.4292 14.5666 24.9475 14.0832 24.9475 13.0936C24.9475 12.2752 25.4101 11.6776 26.2014 11.6776C26.9086 11.6776 27.329 12.1192 27.329 13.1697V14.5666Z" fill="#09090B"/>
<path d="M35.7083 8.64014C35.3298 8.64014 35.0202 8.95606 35.0202 9.32527C35.0202 9.69447 35.3145 10.0104 35.7083 10.0104C36.102 10.0104 36.3925 9.69447 36.3925 9.32527C36.3925 8.95606 36.0753 8.64014 35.7083 8.64014ZM34.0186 8.64014C33.6402 8.64014 33.3306 8.95606 33.3306 9.32527C33.3306 9.69447 33.6173 10.0104 34.0186 10.0104C34.42 10.0104 34.7067 9.70589 34.7067 9.32527C34.7067 8.94464 34.3971 8.64014 34.0186 8.64014Z" fill="#09090B"/>
<path d="M42.5662 8.63257C42.1801 8.63257 41.8398 8.96752 41.8398 9.35576C41.8398 9.744 42.1648 10.0828 42.5662 10.0828C42.9675 10.0828 43.2963 9.75923 43.2963 9.35576C43.2963 8.9523 42.9599 8.63257 42.5662 8.63257Z" fill="#09090B"/>
<path d="M46.9471 16.4279C46.5686 16.4279 46.259 16.7286 46.259 17.1092C46.259 17.4898 46.5533 17.7943 46.9471 17.7943C47.3408 17.7943 47.6313 17.4784 47.6313 17.1092C47.6313 16.74 47.314 16.4279 46.9471 16.4279ZM45.2574 16.4279C44.879 16.4279 44.5693 16.7286 44.5693 17.1092C44.5693 17.4898 44.8675 17.7943 45.2574 17.7943C45.6473 17.7943 45.9417 17.4784 45.9417 17.1092C45.9417 16.74 45.6244 16.4279 45.2574 16.4279Z" fill="#09090B"/>
<path d="M45.4368 10.7184V14.5666H43.2655V10.7184H41.8702V14.5666H37.2065V10.9506C37.2065 10.9506 36.247 10.5852 34.9894 10.5852C33.0551 10.5852 32.2026 11.8451 32.2026 13.2191C32.2026 14.7112 32.9748 15.659 35.02 15.659H46.8321V10.7184H45.4368ZM35.8533 14.5666H35.1805C34.0719 14.5666 33.5979 14.0489 33.5979 13.0935C33.5979 12.2752 34.0605 11.6776 34.8518 11.6776C35.4558 11.6776 35.8533 11.8641 35.8533 11.8641V14.5666Z" fill="#09090B"/>
<path d="M61.8325 8.24817V14.5666H59.3248V13.0022C59.3248 11.5292 58.587 10.5852 56.9394 10.5852C55.1122 10.5852 54.1947 11.8032 54.1947 13.1354C54.1947 14.2164 53.7857 14.5666 53.1511 14.5666H52.6465C52.5204 12.2219 51.3086 11.0344 49.1335 10.4672L48.7971 11.6243C50.46 12.043 51.2245 13.0098 51.2857 14.5628H48.1587V15.659H53.2964C54.1833 15.659 54.6076 15.3316 54.7949 14.8482C55.1657 15.3316 55.6435 15.659 57.1573 15.659H63.2239V8.24817H61.8287H61.8325ZM57.9639 14.5666H57.1611C56.064 14.5666 55.5824 14.0832 55.5824 13.0936C55.5824 12.2752 56.0449 11.6776 56.84 11.6776C57.5472 11.6776 57.9677 12.1191 57.9677 13.1697V14.5666H57.9639Z" fill="#09090B"/>
<path d="M70.4145 8.64014C70.0361 8.64014 69.7302 8.95606 69.7302 9.32527C69.7302 9.69447 70.0246 10.0104 70.4145 10.0104C70.8044 10.0104 71.1026 9.69447 71.1026 9.32527C71.1026 8.95606 70.7853 8.64014 70.4145 8.64014ZM68.7249 8.64014C68.3464 8.64014 68.0444 8.95606 68.0444 9.32527C68.0444 9.69447 68.3273 10.0104 68.7249 10.0104C69.1224 10.0104 69.413 9.70589 69.413 9.32527C69.413 8.94464 69.111 8.64014 68.7249 8.64014Z" fill="#09090B"/>
<path d="M76.1676 16.4279C75.7853 16.4279 75.4795 16.7286 75.4795 17.1092C75.4795 17.4898 75.7738 17.7943 76.1676 17.7943C76.5613 17.7943 76.8518 17.4784 76.8518 17.1092C76.8518 16.74 76.5346 16.4279 76.1676 16.4279ZM77.8572 16.4279C77.4749 16.4279 77.1729 16.7286 77.1729 17.1092C77.1729 17.4898 77.4673 17.7943 77.8572 17.7943C78.2471 17.7943 78.5415 17.4784 78.5415 17.1092C78.5415 16.74 78.2242 16.4279 77.8572 16.4279Z" fill="#09090B"/>
<path d="M95.7476 8.24815V14.5666H93.5266V13.0022C93.5266 11.5292 92.7888 10.5852 91.1413 10.5852C89.3178 10.5852 88.4004 11.8032 88.4004 13.1354C88.4004 14.2164 87.9875 14.5666 87.3568 14.5666H86.3552V8.24815H84.96V14.5666H83.2397C83.1327 12.5492 82.2382 11.4987 80.9041 10.9011L83.4767 9.35578V7.97791L79.2985 10.5852V11.6053C80.9805 11.9935 81.8215 12.9375 81.875 14.5666H77.7198V10.7184H76.3245V14.5666H71.9131V10.9506C71.9131 10.9506 70.9536 10.5852 69.6959 10.5852C67.7616 10.5852 66.9092 11.8451 66.9092 13.2191C66.9092 14.7112 67.6814 15.659 69.7303 15.659H87.4982C88.3813 15.659 88.8056 15.3316 88.9967 14.8482C89.3637 15.3316 89.8377 15.659 91.3591 15.659H97.1352V8.24815H95.74H95.7476ZM70.5637 14.5666H69.8909C68.7823 14.5666 68.3083 14.0489 68.3083 13.0935C68.3083 12.2752 68.7708 11.6776 69.5621 11.6776C70.1661 11.6776 70.5637 11.8641 70.5637 11.8641V14.5666ZM92.1619 14.5666H91.363C90.262 14.5666 89.7804 14.0832 89.7804 13.0935C89.7804 12.2752 90.2429 11.6776 91.0342 11.6776C91.7414 11.6776 92.1619 12.1191 92.1619 13.1697V14.5666Z" fill="#09090B"/>
<path d="M100.22 8.25195H98.8247V15.659H100.22V8.25195Z" fill="#09090B"/>
<path d="M107.127 8.64014C106.749 8.64014 106.439 8.95606 106.439 9.32527C106.439 9.69447 106.734 10.0104 107.127 10.0104C107.521 10.0104 107.815 9.69447 107.815 9.32527C107.815 8.95606 107.494 8.64014 107.127 8.64014ZM105.441 8.64014C105.063 8.64014 104.753 8.95606 104.753 9.32527C104.753 9.69447 105.04 10.0104 105.441 10.0104C105.843 10.0104 106.126 9.70589 106.126 9.32527C106.126 8.94464 105.82 8.64014 105.441 8.64014Z" fill="#09090B"/>
<path d="M114.295 9.47002C113.707 9.47002 113.531 9.32158 113.531 9.08178C113.531 8.88385 113.691 8.72399 114.051 8.72399C114.326 8.72399 114.567 8.77728 114.624 8.78489L114.758 8.05028C114.685 8.03886 114.422 7.98938 114.135 7.98938C113.026 7.98938 112.587 8.55651 112.587 9.07036C112.587 9.25687 112.694 9.44718 112.85 9.53092C112.701 9.49666 112.445 9.46621 112.216 9.46621V10.2199H114.941V9.46621H114.295V9.47002Z" fill="#09090B"/>
<path d="M118.424 16.4279C118.045 16.4279 117.739 16.7286 117.739 17.1092C117.739 17.4898 118.034 17.7943 118.424 17.7943C118.814 17.7943 119.112 17.4784 119.112 17.1092C119.112 16.74 118.795 16.4279 118.424 16.4279ZM116.738 16.4279C116.359 16.4279 116.05 16.7286 116.05 17.1092C116.05 17.4898 116.344 17.7943 116.738 17.7943C117.132 17.7943 117.426 17.4784 117.426 17.1092C117.426 16.74 117.109 16.4279 116.738 16.4279Z" fill="#09090B"/>
<path d="M128.687 8.24819V14.5666H126.711V14.5362C126.711 11.4645 125.213 10.216 122.575 10.216C121.726 10.216 120.767 10.3835 120.01 10.6271L120.144 11.7081C120.809 11.4873 121.677 11.297 122.403 11.297C124.49 11.297 125.381 12.2638 125.381 14.4372V14.5628H124.326V14.3192C124.326 13.1316 123.798 12.1039 122.384 12.1039C121.107 12.1039 120.358 12.85 120.358 13.8701C120.358 14.3116 120.568 14.559 120.614 14.6123C120.572 14.6047 120.385 14.5628 120.136 14.5628H118.286V10.7147H116.894V14.5628H114.429V10.7147H113.037V14.5628H108.626V10.9468C108.626 10.9468 107.666 10.5814 106.405 10.5814C104.478 10.5814 103.622 11.8413 103.622 13.2154C103.622 14.7074 104.394 15.6552 106.439 15.6552H130.075V8.24438H128.684L128.687 8.24819ZM107.277 14.5666H106.604C105.491 14.5666 105.021 14.049 105.021 13.0936C105.021 12.2752 105.484 11.6738 106.275 11.6738C106.879 11.6738 107.277 11.8642 107.277 11.8642V14.5666ZM123.187 14.6085H122.491C121.952 14.6085 121.486 14.3687 121.486 13.7787C121.486 13.3372 121.795 13.0669 122.277 13.0669C122.9 13.0669 123.187 13.497 123.187 14.3078V14.6085Z" fill="#09090B"/>
<path d="M133.16 8.25195H131.769V15.659H133.16V8.25195Z" fill="#09090B"/>
<path d="M12.8485 20.177C12.4701 20.177 12.1604 20.4929 12.1604 20.8583C12.1604 21.2237 12.4586 21.5435 12.8485 21.5435C13.2384 21.5435 13.5366 21.2275 13.5366 20.8583C13.5366 20.4891 13.2193 20.177 12.8485 20.177ZM11.1589 20.177C10.7804 20.177 10.4746 20.4929 10.4746 20.8583C10.4746 21.2237 10.7575 21.5435 11.1589 21.5435C11.5603 21.5435 11.847 21.2428 11.847 20.8583C11.847 20.4739 11.545 20.177 11.1589 20.177Z" fill="#09090B"/>
<path d="M23.5369 21.8365L22.1761 22.0269C22.3557 22.8262 22.4857 23.793 22.4857 24.8435C22.4857 25.1708 22.4628 25.6809 22.4207 26.1072H22.134C21.1592 26.1072 20.8802 25.9397 20.8802 25.1099V22.4722H19.5422V24.8473C19.5422 25.8674 19.2326 26.1947 18.6859 26.1947C18.0628 26.1947 17.9558 25.7837 17.9558 24.8359V22.8947H16.5605V24.8092C16.5605 25.8369 16.2967 26.1148 15.6125 26.1148H14.3472V22.4988C14.3472 22.4988 13.3877 22.1296 12.13 22.1296C10.1957 22.1296 9.34326 23.3933 9.34326 24.7674C9.34326 26.2594 10.1154 27.2034 12.1606 27.2034H15.601C16.3732 27.2034 16.7937 26.9522 17.0039 26.4688C17.1721 26.9712 17.7341 27.2871 18.4183 27.2871C19.244 27.2871 19.8022 26.9293 20.0124 26.4764C20.3182 27.0549 20.8802 27.2034 21.9887 27.2034H23.7281C23.8236 26.4574 23.8772 25.521 23.8772 24.7522C23.8772 23.713 23.7434 22.6853 23.5408 21.8404M12.9939 26.1034H12.3211C11.2126 26.1034 10.7385 25.5857 10.7385 24.6304C10.7385 23.8082 11.2011 23.2106 11.9924 23.2106C12.5964 23.2106 12.9939 23.4009 12.9939 23.4009V26.1034Z" fill="#09090B"/>
<path d="M33.3688 20.177C32.9903 20.177 32.6807 20.4929 32.6807 20.8583C32.6807 21.2237 32.9674 21.5435 33.3688 21.5435C33.7701 21.5435 34.053 21.2428 34.053 20.8583C34.053 20.4739 33.7472 20.177 33.3688 20.177ZM35.0584 20.177C34.6799 20.177 34.3741 20.4929 34.3741 20.8583C34.3741 21.2237 34.6685 21.5435 35.0584 21.5435C35.4483 21.5435 35.7465 21.2275 35.7465 20.8583C35.7465 20.4891 35.4254 20.177 35.0584 20.177Z" fill="#09090B"/>
<path d="M45.6472 19.7888V26.1034H43.5027V24.5352C43.5027 23.066 42.7649 22.1183 41.1173 22.1183C39.2901 22.1183 38.3688 23.3401 38.3688 24.6723C38.3688 25.7532 37.9598 26.1034 37.3252 26.1034H36.9582C36.5874 26.1034 36.144 26.1529 36.144 26.1529C36.5454 25.818 36.7556 25.1747 36.7556 24.5657C36.7556 22.8909 35.7961 22.1145 34.3091 22.1145C32.7036 22.1145 31.6179 23.2183 31.6179 24.7332C31.6179 25.3346 31.7861 25.8218 32.1149 26.1529C32.1149 26.1529 31.7861 26.1034 31.4574 26.1034H29.8136C29.6875 23.7588 28.4757 22.5712 26.3006 22.0041L25.9642 23.1612C27.6309 23.5799 28.3916 24.5505 28.4527 26.1034H25.3296V27.1958H37.4743C38.3612 27.1958 38.7855 26.8723 38.9728 26.3851C39.3436 26.8723 39.8214 27.1958 41.3352 27.1958H47.0425V19.7888H45.6472ZM34.183 26.1034C33.4108 26.1034 33.0209 25.6086 33.0209 24.619C33.0209 23.6293 33.6019 23.2145 34.2059 23.2145C34.9972 23.2145 35.3642 23.7169 35.3642 24.6418C35.3642 25.62 34.8519 26.1034 34.183 26.1034ZM42.138 26.1034H41.3314C40.2381 26.1034 39.7526 25.6162 39.7526 24.6304C39.7526 23.8082 40.2152 23.2107 41.0065 23.2107C41.7137 23.2107 42.1342 23.6522 42.1342 24.6989V26.0996L42.138 26.1034Z" fill="#09090B"/>
<path d="M50.1233 19.7888H48.728V27.1958H50.1233V19.7888Z" fill="#09090B"/>
<path d="M62.6389 26.1035V27.1959H56.1098V27.2377C56.1098 28.5852 55.6472 29.8679 53.5027 29.8679C53.1777 29.8679 52.8719 29.826 52.6196 29.7613L52.7267 28.6537C52.979 28.7298 53.2466 28.7831 53.5829 28.7831C54.2978 28.7831 54.7183 28.4443 54.7183 27.3101V22.2553H56.1136V26.0997H58.8315C58.369 25.8218 58.0173 25.2356 58.0173 24.5315C58.0173 23.2297 58.9156 22.1145 60.7734 22.1145C61.4921 22.1145 62.0846 22.3162 62.0846 22.3162L61.84 23.4201C61.84 23.4201 61.3545 23.1993 60.7429 23.1993C59.9516 23.1993 59.4126 23.7246 59.4126 24.5315C59.4126 25.426 60.1427 26.0997 61.817 26.0997H62.6427L62.6389 26.1035Z" fill="#09090B"/>
<path d="M70.7623 20.2304C70.3839 20.2304 70.0742 20.5463 70.0742 20.9155C70.0742 21.2847 70.3839 21.6007 70.7623 21.6007C71.1408 21.6007 71.4504 21.2847 71.4504 20.9155C71.4504 20.5463 71.1331 20.2304 70.7623 20.2304ZM71.6377 18.8525C71.2593 18.8525 70.9496 19.1685 70.9496 19.5339C70.9496 19.8993 71.2593 20.219 71.6377 20.219C72.0161 20.219 72.3258 19.8993 72.3258 19.5339C72.3258 19.1685 72.02 18.8525 71.6377 18.8525ZM72.5055 20.2304C72.1347 20.2304 71.8174 20.5463 71.8174 20.9155C71.8174 21.2847 72.1347 21.6007 72.5055 21.6007C72.8763 21.6007 73.1859 21.2847 73.1859 20.9155C73.1859 20.5463 72.8839 20.2304 72.5055 20.2304Z" fill="#09090B"/>
<path d="M84.3863 19.7888V26.1034H82.4521V24.5352C82.4521 23.066 81.7143 22.1183 80.0667 22.1183C78.2394 22.1183 77.3182 23.3401 77.3182 24.6723C77.3182 25.7532 76.9091 26.1034 76.2746 26.1034H75.3189C75.3495 25.6391 75.3609 25.1671 75.3609 24.7446C75.3609 23.7055 75.2233 22.6778 75.0207 21.8328L73.6599 22.0231C73.8395 22.8224 73.9695 23.7892 73.9695 24.8397C73.9695 25.1671 73.9504 25.6771 73.9083 26.1034H73.6216C72.6507 26.1034 72.3678 25.9359 72.3678 25.1062V22.4684H71.0298V24.8435C71.0298 25.8636 70.724 26.191 70.1736 26.191C69.5505 26.191 69.4434 25.7799 69.4434 24.8321V22.8909H68.0481V24.8055C68.0481 25.8332 67.7882 26.111 67.1001 26.111H65.2117V19.7964H63.8164V27.2034H67.0848C67.8532 27.2034 68.2775 26.9522 68.4877 26.4688C68.6598 26.9713 69.2179 27.2872 69.9021 27.2872C70.7278 27.2872 71.286 26.9294 71.4962 26.4764C71.802 27.055 72.364 27.2034 73.4725 27.2034H76.4313C77.3143 27.2034 77.7387 26.8799 77.926 26.3927C78.2968 26.8799 78.7746 27.2034 80.2884 27.2034H85.7778V19.7964H84.3863V19.7888ZM81.095 26.1034H80.2884C79.1951 26.1034 78.7096 25.6162 78.7096 24.6304C78.7096 23.8082 79.1722 23.2107 79.9635 23.2107C80.6707 23.2107 81.0912 23.6522 81.0912 24.6989V26.0996L81.095 26.1034Z" fill="#09090B"/>
<path d="M88.8587 19.7888H87.4673V27.1958H88.8587V19.7888Z" fill="#09090B"/>
<path d="M90.3496 29.708L90.4337 28.5737C90.4337 28.5737 91.2555 28.7526 92.0812 28.7526C93.1784 28.7526 93.9085 28.3415 93.9085 27.3557V27.1996H93.0751C91.0262 27.1996 90.2578 26.2557 90.2578 24.7598C90.2578 23.3819 91.1141 22.1221 93.0446 22.1221C94.3022 22.1221 95.2617 22.4913 95.2617 22.4913V27.2225C95.2617 28.6727 94.3099 29.8488 91.9589 29.8488C91.1676 29.8488 90.3534 29.7118 90.3534 29.7118M93.9085 23.401C93.9085 23.401 93.5071 23.2107 92.9069 23.2107C92.1156 23.2107 91.6493 23.8082 91.6493 24.6304C91.6493 25.5858 92.1233 26.1034 93.2319 26.1034H93.9085V23.401Z" fill="#09090B"/>
<path d="M102.154 20.177C101.776 20.177 101.466 20.4929 101.466 20.8583C101.466 21.2237 101.764 21.5435 102.154 21.5435C102.544 21.5435 102.842 21.2275 102.842 20.8583C102.842 20.4891 102.525 20.177 102.154 20.177ZM100.465 20.177C100.086 20.177 99.7803 20.4929 99.7803 20.8583C99.7803 21.2237 100.063 21.5435 100.465 21.5435C100.866 21.5435 101.149 21.2428 101.149 20.8583C101.149 20.4739 100.847 20.177 100.465 20.177Z" fill="#09090B"/>
<path d="M108.427 22.1221C106.6 22.1221 105.683 23.3439 105.683 24.6761C105.683 25.4183 105.882 25.8827 106.268 26.172C106.218 26.1606 106.008 26.1035 105.683 26.1035H103.653V22.4875C103.653 22.4875 102.693 22.1183 101.44 22.1183C99.5053 22.1183 98.6528 23.382 98.6528 24.7561C98.6528 26.2481 99.4212 27.1921 101.47 27.1921H110.817V24.5315C110.817 23.0623 110.079 22.1145 108.431 22.1145M102.3 26.1035H101.627C100.518 26.1035 100.044 25.5858 100.044 24.6304C100.044 23.8083 100.507 23.2107 101.298 23.2107C101.902 23.2107 102.3 23.401 102.3 23.401V26.1035ZM109.452 26.1035H108.649C107.552 26.1035 107.07 25.6163 107.07 24.6304C107.07 23.8083 107.533 23.2107 108.324 23.2107C109.031 23.2107 109.452 23.6522 109.452 24.699V26.0997V26.1035Z" fill="#09090B"/>
<path d="M128.684 19.7888V26.1034H126.753V24.5352C126.753 23.066 126.015 22.1183 124.368 22.1183C122.54 22.1183 121.623 23.3401 121.623 24.6723C121.623 25.7533 121.214 26.1034 120.579 26.1034H120.033C119.926 24.0861 119.031 23.0318 117.701 22.4342L120.277 20.8926V19.5148L116.095 22.1183V23.1383C117.777 23.5304 118.618 24.4743 118.672 26.1034H114.306V22.2591H112.915V27.3138C112.915 28.4443 112.491 28.7869 111.772 28.7869C111.436 28.7869 111.168 28.7336 110.916 28.6574L110.809 29.7651C111.061 29.8298 111.371 29.8716 111.692 29.8716C113.836 29.8716 114.299 28.5889 114.299 27.2415V27.1996H120.721C121.608 27.1996 122.032 26.8761 122.219 26.3889C122.59 26.8761 123.068 27.1996 124.582 27.1996H130.071V19.7926H128.676L128.684 19.7888ZM125.396 26.1034H124.593C123.496 26.1034 123.011 25.6162 123.011 24.6304C123.011 23.8082 123.477 23.2107 124.272 23.2107C124.979 23.2107 125.4 23.6522 125.4 24.6989V26.0996L125.396 26.1034Z" fill="#09090B"/>
<path d="M133.16 19.7888H131.769V27.1958H133.16V19.7888Z" fill="#09090B"/>
</svg>
