<svg width="195" height="58" viewBox="0 0 195 58" fill="none" xmlns="http://www.w3.org/2000/svg">
<path d="M177.934 43.6426H175.694V45.8731H177.934V43.6426Z" fill="#FAFAFA"/>
<path d="M177.934 48.0999H175.694V50.3303H177.934V48.0999Z" fill="#FAFAFA"/>
<path d="M157.789 39.1855V48.1036H155.549V43.6465H144.356V50.3341H173.455V43.6465H162.266V48.1036H160.026V41.416H177.935V39.1855H157.789ZM153.309 48.0998H146.593V45.8732H153.309V48.0998ZM164.502 45.8732H171.219V48.0998H164.502V45.8732Z" fill="#FAFAFA"/>
<path d="M182.411 16.896H180.171V19.1265H182.411V16.896Z" fill="#FAFAFA"/>
<path d="M186.891 16.896H184.651V19.1265H186.891V16.896Z" fill="#FAFAFA"/>
<path d="M180.175 21.3494V32.4979H184.651V34.7246H177.934V16.8922H175.694V36.9551H184.651V39.1818H180.175V50.3265H186.887V21.3456H180.175V21.3494ZM184.651 48.0999H182.411V41.416H184.651V48.0999ZM184.651 30.2675H182.411V23.5836H184.651V30.2675Z" fill="#FAFAFA"/>
<path d="M155.55 12.4351H153.31V14.6655H155.55V12.4351Z" fill="#FAFAFA"/>
<path d="M155.55 7.97791H153.31V10.2084H155.55V7.97791Z" fill="#FAFAFA"/>
<path d="M157.79 7.97791V14.6655H168.979V10.2084H171.219V16.896H153.31V19.1265H173.455V10.2084H175.695V14.6655H186.888V7.97791H157.79ZM166.743 12.4351H160.026V10.2084H166.743V12.4351ZM184.652 12.4351H177.935V10.2084H184.652V12.4351Z" fill="#FAFAFA"/>
<path d="M151.073 39.1855H148.833V41.416H151.073V39.1855Z" fill="#FAFAFA"/>
<path d="M146.593 39.1855H144.353V41.416H146.593V39.1855Z" fill="#FAFAFA"/>
<path d="M146.593 21.3493V19.1227H151.069V7.97791H144.356V36.9589H151.069V25.8141H146.593V23.5874H153.309V41.4198H155.545V21.357H146.593V21.3493ZM146.593 10.2084H148.833V16.8922H146.593V10.2084ZM148.833 34.7246H146.593V28.0408H148.833V34.7246Z" fill="#FAFAFA"/>
<path d="M168.482 26.5221C168.704 26.9865 168.83 27.5003 168.887 27.9837C168.348 27.2872 167.687 26.6706 166.983 26.21C167.045 26.2861 167.102 26.3699 167.155 26.4536C167.733 27.3861 167.633 28.6232 167.301 29.6242C167.09 28.6841 166.735 27.7668 166.265 26.9789C166.158 26.8 166.043 26.6211 165.921 26.4498L166.089 30.6633C166.089 30.8118 165.913 31.0782 165.619 31.0782C165.324 31.0782 165.149 30.8118 165.149 30.6633L165.313 26.4536C165.187 26.6249 165.076 26.8 164.969 26.9789C164.499 27.7668 164.143 28.6803 163.933 29.6242C163.6 28.627 163.501 27.3899 164.078 26.4536C164.132 26.3661 164.189 26.2861 164.25 26.21C163.551 26.6706 162.889 27.2872 162.347 27.9837C162.457 27.0131 162.851 25.9207 163.723 25.3726C164.013 25.1899 164.327 25.0719 164.648 25.0034C164.648 24.9844 164.648 24.992 164.648 24.9692C164.46 24.9806 164.277 24.9996 164.09 25.0263C163.283 25.1481 162.499 25.3802 161.758 25.7266C162.301 24.9006 163.165 24.2802 163.975 24.1736C164.105 24.1546 164.243 24.1508 164.38 24.1546C163.891 23.9072 163.367 23.7017 162.817 23.557C163.558 23.3591 164.357 23.401 165.053 23.7093C165.256 22.8567 165.619 22.3542 165.619 22.3542C165.619 22.3542 165.978 22.8567 166.185 23.7093C166.876 23.401 167.679 23.3629 168.421 23.557C167.874 23.7017 167.347 23.9072 166.857 24.1546C166.995 24.147 167.133 24.1546 167.259 24.1736C167.664 24.2269 168.084 24.4096 168.467 24.6799C168.853 24.9501 169.204 25.3155 169.476 25.7266C168.73 25.3802 167.951 25.1481 167.144 25.0263C166.957 24.9958 166.773 24.9806 166.586 24.9692C166.586 24.992 166.586 24.9844 166.586 25.0034C166.907 25.0719 167.22 25.1899 167.511 25.3726C167.947 25.6467 168.26 26.0578 168.482 26.5221Z" fill="#7D7150"/>
<path d="M173.455 29.4339C172.591 29.3387 171.689 29.5138 170.89 30.001L166.344 32.7682L168.168 33.8758L168.42 33.4647C168.42 33.4647 168.405 33.4571 168.397 33.4571C168.195 33.3315 168.13 33.0651 168.256 32.8633C168.382 32.6616 168.646 32.5969 168.848 32.7225C169.051 32.8481 169.116 33.1107 168.99 33.3125L168.512 34.0928L168.753 34.2412L169.296 34.5723C169.479 34.6865 169.697 34.6941 169.88 34.6142C169.888 34.7094 169.873 34.8083 169.838 34.8997C169.827 34.9339 169.808 34.9644 169.789 34.9986C169.605 35.2993 169.208 35.3945 168.906 35.208L168.122 34.7322L167.87 35.1471C167.87 35.1471 167.881 35.1509 167.885 35.1547C168.088 35.2803 168.153 35.5429 168.03 35.7447C167.904 35.9464 167.636 36.0149 167.434 35.8893C167.231 35.7637 167.166 35.4973 167.292 35.2955L167.774 34.5152L165.622 33.2059L163.47 34.5152L163.951 35.2955C164.074 35.4973 164.009 35.7637 163.806 35.8893C163.604 36.0149 163.336 35.9464 163.214 35.7447C163.087 35.5429 163.152 35.2803 163.355 35.1547C163.363 35.1547 163.367 35.1471 163.374 35.1433L163.122 34.7322L162.338 35.208C162.032 35.3945 161.639 35.2993 161.451 34.9986C161.432 34.9682 161.417 34.9339 161.402 34.8997C161.367 34.8083 161.352 34.7094 161.36 34.6142C161.547 34.6941 161.765 34.6827 161.948 34.5723L162.491 34.2412L162.736 34.0928L162.254 33.3125C162.128 33.1107 162.197 32.8443 162.399 32.7225C162.602 32.5969 162.866 32.6616 162.992 32.8633C163.118 33.0651 163.053 33.3315 162.85 33.4571C162.843 33.4571 162.839 33.4647 162.831 33.4647L163.084 33.8758L164.907 32.7682L160.362 30.001C159.563 29.5138 158.661 29.3387 157.797 29.4339C158.657 28.8515 159.808 28.7868 160.756 29.3616L165.63 32.3266L170.504 29.3616C171.448 28.7868 172.602 28.8515 173.462 29.4339" fill="#7D7150"/>
<path d="M36.9918 40.8032C36.9383 40.8032 36.8962 40.7727 36.8733 40.7118L35.6385 38.1883H34.2738C34.2394 38.1883 34.2203 38.2073 34.2203 38.2416V40.7118C34.2203 40.7727 34.1897 40.8032 34.1286 40.8032H33.4902C33.429 40.8032 33.3984 40.7727 33.3984 40.7118V34.717C33.3984 34.6561 33.429 34.6256 33.4902 34.6256H35.7379C36.0285 34.6256 36.296 34.6675 36.533 34.7512C36.7701 34.835 36.9765 34.9568 37.1447 35.109C37.3167 35.2651 37.4467 35.4516 37.5422 35.6723C37.6378 35.8931 37.6837 36.1367 37.6837 36.4031C37.6837 36.8218 37.5728 37.1758 37.3549 37.4651C37.137 37.7544 36.8389 37.9599 36.4604 38.0817L37.7831 40.689C37.8022 40.7195 37.806 40.7461 37.7907 40.7651C37.7792 40.788 37.7563 40.7956 37.7257 40.7956H36.9879L36.9918 40.8032ZM35.7188 37.4346C36.082 37.4346 36.3648 37.3471 36.5636 37.1682C36.7624 36.9893 36.8618 36.7381 36.8618 36.4108C36.8618 36.0834 36.7624 35.8322 36.5636 35.6533C36.3648 35.4744 36.082 35.3869 35.7188 35.3869H34.2738C34.2394 35.3869 34.2203 35.4059 34.2203 35.4402V37.3852C34.2203 37.4232 34.2394 37.4384 34.2738 37.4384H35.7188V37.4346Z" fill="#7D7150"/>
<path d="M41.2161 40.9022C40.6924 40.9022 40.2489 40.7804 39.8896 40.5406C39.5264 40.297 39.2665 39.9392 39.1098 39.4596C39.0792 39.3683 39.0524 39.2731 39.0333 39.178C39.0104 39.0828 38.9951 38.9686 38.9836 38.8392C38.9722 38.7098 38.9607 38.5537 38.9569 38.371C38.9492 38.1883 38.9492 37.9714 38.9492 37.7164C38.9492 37.4613 38.9492 37.2444 38.9569 37.0617C38.9645 36.879 38.9722 36.7229 38.9836 36.5935C38.9951 36.4641 39.0142 36.3499 39.0333 36.2548C39.0563 36.1596 39.0792 36.0644 39.1098 35.9731C39.2665 35.4935 39.5264 35.1357 39.8896 34.8921C40.2528 34.6485 40.6924 34.5305 41.2161 34.5305C41.7398 34.5305 42.1909 34.6523 42.554 34.8921C42.9172 35.1357 43.1771 35.4935 43.3339 35.9731C43.3644 36.0644 43.3912 36.1596 43.4103 36.2548C43.4332 36.3499 43.4485 36.4641 43.46 36.5935C43.4715 36.7229 43.4829 36.879 43.4868 37.0617C43.4906 37.2444 43.4944 37.4613 43.4944 37.7164C43.4944 37.9714 43.4944 38.1883 43.4868 38.371C43.4791 38.5537 43.4715 38.7098 43.46 38.8392C43.4485 38.9686 43.4294 39.0828 43.4103 39.178C43.3874 39.2731 43.3644 39.3683 43.3339 39.4596C43.1771 39.9392 42.9172 40.297 42.554 40.5406C42.1909 40.7842 41.7474 40.9022 41.2161 40.9022ZM41.2161 40.1486C41.5639 40.1486 41.8468 40.0686 42.0647 39.9126C42.2826 39.7565 42.4432 39.5282 42.5387 39.2313C42.5578 39.178 42.5731 39.1095 42.5884 39.0257C42.6037 38.942 42.619 38.843 42.6343 38.7212C42.6496 38.5994 42.6611 38.4586 42.6649 38.2949C42.6687 38.1313 42.6725 37.9371 42.6725 37.7126C42.6725 37.488 42.6725 37.2939 42.6649 37.1302C42.6572 36.9665 42.6496 36.8257 42.6343 36.7039C42.619 36.5821 42.6037 36.4831 42.5884 36.3994C42.5731 36.3195 42.5578 36.251 42.5387 36.1939C42.4432 35.897 42.2826 35.6686 42.0647 35.5125C41.8468 35.3565 41.5639 35.2765 41.2161 35.2765C40.8682 35.2765 40.5892 35.3565 40.3713 35.5125C40.1534 35.6686 39.9966 35.897 39.9011 36.1939C39.882 36.2471 39.8667 36.3157 39.8514 36.3994C39.8361 36.4793 39.8208 36.5821 39.8055 36.7039C39.7902 36.8257 39.7787 36.9665 39.7749 37.1302C39.7711 37.2939 39.7673 37.488 39.7673 37.7126C39.7673 37.9371 39.7673 38.1313 39.7749 38.2949C39.7826 38.4586 39.7902 38.5994 39.8055 38.7212C39.8208 38.843 39.8361 38.942 39.8514 39.0257C39.8667 39.1095 39.882 39.1742 39.9011 39.2313C39.9966 39.5282 40.1534 39.7565 40.3713 39.9126C40.5853 40.0686 40.8682 40.1486 41.2161 40.1486Z" fill="#7D7150"/>
<path d="M46.2692 40.8032C46.208 40.8032 46.1774 40.7727 46.1774 40.7118V38.2758L44.3425 34.7246C44.3196 34.6599 44.3425 34.6256 44.4152 34.6256H45.0612C45.1147 34.6256 45.1606 34.6561 45.1988 34.717L46.5865 37.3623H46.6056L47.9817 34.717C48.0047 34.6561 48.0467 34.6256 48.1079 34.6256H48.7386C48.8113 34.6256 48.8342 34.6599 48.8113 34.7246L46.9764 38.2758V40.7118C46.9764 40.7727 46.9458 40.8032 46.8846 40.8032H46.2653H46.2692Z" fill="#7D7150"/>
<path d="M50.9521 34.717C50.9712 34.6561 51.0056 34.6256 51.063 34.6256H51.6555C51.7167 34.6256 51.7549 34.6561 51.774 34.717L53.8994 40.7118C53.9185 40.7727 53.8994 40.8032 53.8344 40.8032H53.196C53.1349 40.8032 53.0966 40.7727 53.0775 40.7118L52.6035 39.3682H50.0958L49.6218 40.7118C49.5989 40.7727 49.5568 40.8032 49.5033 40.8032H48.8649C48.8038 40.8032 48.7846 40.7727 48.7999 40.7118L50.9521 34.717ZM52.3359 38.6146L51.3611 35.817H51.342L50.3558 38.6146H52.3359Z" fill="#7D7150"/>
<path d="M55.0195 34.717C55.0195 34.6561 55.0501 34.6256 55.1113 34.6256H55.7497C55.8108 34.6256 55.8414 34.6561 55.8414 34.717V39.9963C55.8414 40.0343 55.8605 40.0496 55.8949 40.0496H58.8499C58.911 40.0496 58.9416 40.08 58.9416 40.1409V40.7118C58.9416 40.7727 58.911 40.8032 58.8499 40.8032H55.1113C55.0501 40.8032 55.0195 40.7727 55.0195 40.7118V34.717Z" fill="#7D7150"/>
<path d="M62.3363 39.4521C62.3058 39.3607 62.279 39.2694 62.2599 39.1742C62.2369 39.079 62.2217 38.9687 62.2102 38.8392C62.1987 38.7098 62.1873 38.5538 62.1834 38.3711C62.1758 38.1884 62.1758 37.9714 62.1758 37.7164C62.1758 37.4614 62.1758 37.2444 62.1834 37.0617C62.1911 36.879 62.1987 36.723 62.2102 36.5935C62.2217 36.4641 62.2408 36.3499 62.2599 36.2586C62.2828 36.1634 62.3058 36.0721 62.3363 35.9807C62.4931 35.4897 62.7492 35.1243 63.1009 34.8845C63.4526 34.6447 63.8845 34.5267 64.3968 34.5267C64.8593 34.5267 65.2607 34.6333 65.6047 34.8503C65.9488 35.0672 66.2087 35.3717 66.3846 35.7714C66.4037 35.8247 66.3922 35.8665 66.3463 35.8894L65.7997 36.152C65.7385 36.1825 65.6965 36.1672 65.6736 36.1063C65.5512 35.8627 65.3907 35.6648 65.1919 35.5126C64.9893 35.3565 64.7255 35.2804 64.3968 35.2804C64.068 35.2804 63.7813 35.3603 63.5749 35.5164C63.3685 35.6724 63.2117 35.897 63.1085 36.1901C63.0894 36.2586 63.0741 36.3271 63.0588 36.4032C63.0435 36.4794 63.0321 36.5745 63.0206 36.6849C63.013 36.7953 63.0053 36.9361 62.9977 37.1036C62.99 37.2711 62.99 37.4728 62.99 37.7164C62.99 37.96 62.99 38.1617 62.9977 38.3292C63.0053 38.4967 63.013 38.6337 63.0206 38.7479C63.0282 38.8583 63.0435 38.9572 63.0588 39.0334C63.0741 39.1133 63.0894 39.1818 63.1085 39.2427C63.2117 39.532 63.3685 39.7566 63.5749 39.9164C63.7813 40.0725 64.0566 40.1524 64.3968 40.1524C64.737 40.1524 64.9893 40.0763 65.1919 39.9202C65.3945 39.7642 65.555 39.5662 65.6736 39.3264C65.6965 39.2655 65.7424 39.2503 65.7997 39.2808L66.3463 39.5434C66.3884 39.5662 66.3999 39.6081 66.3846 39.6614C66.2087 40.0611 65.9488 40.3694 65.6047 40.5825C65.2607 40.7995 64.8593 40.906 64.3968 40.906C63.8845 40.906 63.4526 40.7881 63.1009 40.5483C62.7492 40.3085 62.4931 39.9431 62.3363 39.4521Z" fill="#7D7150"/>
<path d="M69.7444 40.9022C69.2207 40.9022 68.7773 40.7804 68.4179 40.5406C68.0548 40.297 67.7948 39.9392 67.6381 39.4596C67.6075 39.3683 67.5808 39.2731 67.5616 39.178C67.5387 39.0828 67.5234 38.9686 67.5119 38.8392C67.5005 38.7098 67.489 38.5537 67.4852 38.371C67.4775 38.1883 67.4775 37.9714 67.4775 37.7164C67.4775 37.4613 67.4775 37.2444 67.4852 37.0617C67.4928 36.879 67.5005 36.7229 67.5119 36.5935C67.5234 36.4641 67.5425 36.3499 67.5616 36.2548C67.5846 36.1596 67.6075 36.0644 67.6381 35.9731C67.7948 35.4935 68.0548 35.1357 68.4179 34.8921C68.7811 34.6485 69.2207 34.5305 69.7444 34.5305C70.2681 34.5305 70.7192 34.6523 71.0823 34.8921C71.4455 35.1357 71.7054 35.4935 71.8622 35.9731C71.8928 36.0644 71.9195 36.1596 71.9386 36.2548C71.9616 36.3499 71.9769 36.4641 71.9883 36.5935C71.9998 36.7229 72.0113 36.879 72.0151 37.0617C72.0189 37.2444 72.0227 37.4613 72.0227 37.7164C72.0227 37.9714 72.0227 38.1883 72.0151 38.371C72.0074 38.5537 71.9998 38.7098 71.9883 38.8392C71.9769 38.9686 71.9577 39.0828 71.9386 39.178C71.9157 39.2731 71.8928 39.3683 71.8622 39.4596C71.7054 39.9392 71.4455 40.297 71.0823 40.5406C70.7192 40.7842 70.2757 40.9022 69.7444 40.9022ZM69.7444 40.1486C70.0923 40.1486 70.3751 40.0686 70.593 39.9126C70.8109 39.7565 70.9715 39.5282 71.0671 39.2313C71.0862 39.178 71.1015 39.1095 71.1167 39.0257C71.132 38.942 71.1473 38.843 71.1626 38.7212C71.1779 38.5994 71.1894 38.4586 71.1932 38.2949C71.197 38.1313 71.2008 37.9371 71.2008 37.7126C71.2008 37.488 71.2008 37.2939 71.1932 37.1302C71.1856 36.9665 71.1779 36.8257 71.1626 36.7039C71.1473 36.5821 71.132 36.4831 71.1167 36.3994C71.1015 36.3195 71.0862 36.251 71.0671 36.1939C70.9715 35.897 70.8109 35.6686 70.593 35.5125C70.3751 35.3565 70.0923 35.2765 69.7444 35.2765C69.3965 35.2765 69.1175 35.3565 68.8996 35.5125C68.6817 35.6686 68.525 35.897 68.4294 36.1939C68.4103 36.2471 68.395 36.3157 68.3797 36.3994C68.3644 36.4793 68.3491 36.5821 68.3338 36.7039C68.3185 36.8257 68.3071 36.9665 68.3032 37.1302C68.2994 37.2939 68.2956 37.488 68.2956 37.7126C68.2956 37.9371 68.2956 38.1313 68.3032 38.2949C68.3109 38.4586 68.3185 38.5994 68.3338 38.7212C68.3491 38.843 68.3644 38.942 68.3797 39.0257C68.395 39.1095 68.4103 39.1742 68.4294 39.2313C68.525 39.5282 68.6817 39.7565 68.8996 39.9126C69.1137 40.0686 69.3965 40.1486 69.7444 40.1486Z" fill="#7D7150"/>
<path d="M73.4756 34.717C73.4756 34.6561 73.5062 34.6256 73.5673 34.6256H74.1598C74.2325 34.6256 74.2822 34.6561 74.3051 34.717L76.1591 38.8772H76.1859L78.0055 34.717C78.0284 34.6561 78.0781 34.6256 78.1507 34.6256H78.7433C78.8044 34.6256 78.835 34.6561 78.835 34.717V40.7118C78.835 40.7727 78.8044 40.8032 78.7433 40.8032H78.1622C78.101 40.8032 78.0705 40.7727 78.0705 40.7118V36.4146H78.0437L76.507 39.8136C76.4764 39.8859 76.4229 39.9239 76.3426 39.9239H75.9794C75.8953 39.9239 75.838 39.8859 75.8074 39.8136L74.2707 36.4146H74.2439V40.7118C74.2439 40.7727 74.2134 40.8032 74.1522 40.8032H73.5712C73.51 40.8032 73.4794 40.7727 73.4794 40.7118V34.717H73.4756Z" fill="#7D7150"/>
<path d="M80.502 34.717C80.502 34.6561 80.5325 34.6256 80.5937 34.6256H81.1862C81.2589 34.6256 81.3085 34.6561 81.3315 34.717L83.1855 38.8772H83.2122L85.0319 34.717C85.0548 34.6561 85.1045 34.6256 85.1771 34.6256H85.7696C85.8308 34.6256 85.8614 34.6561 85.8614 34.717V40.7118C85.8614 40.7727 85.8308 40.8032 85.7696 40.8032H85.1886C85.1274 40.8032 85.0968 40.7727 85.0968 40.7118V36.4146H85.0701L83.5334 39.8136C83.5028 39.8859 83.4493 39.9239 83.369 39.9239H83.0058C82.9217 39.9239 82.8644 39.8859 82.8338 39.8136L81.2971 36.4146H81.2703V40.7118C81.2703 40.7727 81.2397 40.8032 81.1786 40.8032H80.5975C80.5364 40.8032 80.5058 40.7727 80.5058 40.7118V34.717H80.502Z" fill="#7D7150"/>
<path d="M87.5273 34.717C87.5273 34.6561 87.5579 34.6256 87.6191 34.6256H88.2575C88.3186 34.6256 88.3492 34.6561 88.3492 34.717V40.7118C88.3492 40.7727 88.3186 40.8032 88.2575 40.8032H87.6191C87.5579 40.8032 87.5273 40.7727 87.5273 40.7118V34.717Z" fill="#7D7150"/>
<path d="M91.8898 40.9022C91.6719 40.9022 91.454 40.8793 91.2399 40.8375C91.0258 40.7956 90.8271 40.7385 90.6398 40.67C90.4524 40.6015 90.2766 40.5177 90.1199 40.4264C89.9631 40.3312 89.8255 40.2361 89.7108 40.1295C89.6688 40.0876 89.665 40.042 89.7032 39.9925L90.1046 39.5205C90.1428 39.4786 90.1848 39.4748 90.2307 39.5129C90.4333 39.6689 90.6818 39.8174 90.98 39.9506C91.2781 40.0838 91.6069 40.1523 91.9662 40.1523C92.3982 40.1523 92.7346 40.0572 92.9754 39.8631C93.2163 39.6689 93.3348 39.4139 93.3348 39.1018C93.3348 38.9686 93.3118 38.8468 93.2698 38.7402C93.2277 38.6298 93.1551 38.5347 93.0557 38.4509C92.9563 38.3672 92.8225 38.2949 92.6581 38.234C92.4938 38.1731 92.2873 38.1274 92.0389 38.097L91.7292 38.0513C90.5136 37.8876 89.9058 37.3205 89.9058 36.3423C89.9058 36.0682 89.9517 35.8208 90.0472 35.5962C90.1428 35.3717 90.2766 35.1813 90.4524 35.0253C90.6283 34.8692 90.8424 34.7474 91.0908 34.6637C91.3393 34.58 91.6184 34.5381 91.9318 34.5381C92.295 34.5381 92.6467 34.5914 92.9754 34.698C93.308 34.8045 93.587 34.9416 93.8202 35.1128C93.8699 35.1509 93.8738 35.1928 93.8393 35.2384L93.5297 35.7371C93.4915 35.7789 93.4494 35.7865 93.4036 35.7561C93.1474 35.6 92.9028 35.482 92.6658 35.4059C92.4288 35.3298 92.1765 35.2917 91.9089 35.2917C91.5266 35.2917 91.2323 35.3831 91.0335 35.5696C90.8309 35.7561 90.7315 35.9959 90.7315 36.2928C90.7315 36.5516 90.8271 36.7686 91.022 36.9322C91.217 37.0997 91.5534 37.2139 92.035 37.2824L92.337 37.3281C92.9448 37.4118 93.3997 37.5945 93.7056 37.8724C94.0114 38.1502 94.1605 38.5461 94.1605 39.0523C94.1605 39.3264 94.1146 39.5738 94.019 39.8022C93.9234 40.0305 93.782 40.2247 93.5909 40.3883C93.3997 40.552 93.1627 40.6814 92.8799 40.7728C92.597 40.8679 92.2682 40.9136 91.8974 40.9136L91.8898 40.9022Z" fill="#7D7150"/>
<path d="M97.4171 40.9022C97.1992 40.9022 96.9813 40.8793 96.7673 40.8375C96.5532 40.7956 96.3544 40.7385 96.1671 40.67C95.9798 40.6015 95.8039 40.5177 95.6472 40.4264C95.4905 40.3312 95.3529 40.2361 95.2382 40.1295C95.1961 40.0876 95.1923 40.042 95.2305 39.9925L95.6319 39.5205C95.6701 39.4786 95.7122 39.4748 95.7581 39.5129C95.9607 39.6689 96.2091 39.8174 96.5073 39.9506C96.8055 40.0838 97.1342 40.1523 97.4936 40.1523C97.9255 40.1523 98.2619 40.0572 98.5028 39.8631C98.7436 39.6689 98.8621 39.4139 98.8621 39.1018C98.8621 38.9686 98.8392 38.8468 98.7971 38.7402C98.7551 38.6298 98.6824 38.5347 98.583 38.4509C98.4837 38.3672 98.3499 38.2949 98.1855 38.234C98.0211 38.1731 97.8147 38.1274 97.5662 38.097L97.2566 38.0513C96.0409 37.8876 95.4331 37.3205 95.4331 36.3423C95.4331 36.0682 95.479 35.8208 95.5746 35.5962C95.6701 35.3717 95.8039 35.1813 95.9798 35.0253C96.1556 34.8692 96.3697 34.7474 96.6182 34.6637C96.8667 34.58 97.1457 34.5381 97.4592 34.5381C97.8223 34.5381 98.174 34.5914 98.5028 34.698C98.8353 34.8045 99.1144 34.9416 99.3476 35.1128C99.3973 35.1509 99.4011 35.1928 99.3667 35.2384L99.0571 35.7371C99.0188 35.7789 98.9768 35.7865 98.9309 35.7561C98.6748 35.6 98.4301 35.482 98.1931 35.4059C97.9561 35.3298 97.7038 35.2917 97.4362 35.2917C97.054 35.2917 96.7596 35.3831 96.5608 35.5696C96.3582 35.7561 96.2588 35.9959 96.2588 36.2928C96.2588 36.5516 96.3544 36.7686 96.5494 36.9322C96.7443 37.0997 97.0807 37.2139 97.5624 37.2824L97.8644 37.3281C98.4722 37.4118 98.9271 37.5945 99.2329 37.8724C99.5387 38.1502 99.6878 38.5461 99.6878 39.0523C99.6878 39.3264 99.6419 39.5738 99.5464 39.8022C99.4508 40.0305 99.3094 40.2247 99.1182 40.3883C98.9271 40.552 98.6901 40.6814 98.4072 40.7728C98.1243 40.8679 97.7956 40.9136 97.4248 40.9136L97.4171 40.9022Z" fill="#7D7150"/>
<path d="M101.068 34.717C101.068 34.6561 101.099 34.6256 101.16 34.6256H101.798C101.86 34.6256 101.89 34.6561 101.89 34.717V40.7118C101.89 40.7727 101.86 40.8032 101.798 40.8032H101.16C101.099 40.8032 101.068 40.7727 101.068 40.7118V34.717Z" fill="#7D7150"/>
<path d="M105.602 40.9022C105.078 40.9022 104.635 40.7804 104.275 40.5406C103.912 40.297 103.652 39.9392 103.496 39.4596C103.465 39.3683 103.438 39.2731 103.419 39.178C103.396 39.0828 103.381 38.9686 103.369 38.8392C103.358 38.7098 103.346 38.5537 103.343 38.371C103.335 38.1883 103.335 37.9714 103.335 37.7164C103.335 37.4613 103.335 37.2444 103.343 37.0617C103.35 36.879 103.358 36.7229 103.369 36.5935C103.381 36.4641 103.4 36.3499 103.419 36.2548C103.442 36.1596 103.465 36.0644 103.496 35.9731C103.652 35.4935 103.912 35.1357 104.275 34.8921C104.638 34.6485 105.078 34.5305 105.602 34.5305C106.126 34.5305 106.577 34.6523 106.94 34.8921C107.303 35.1357 107.563 35.4935 107.72 35.9731C107.75 36.0644 107.777 36.1596 107.796 36.2548C107.819 36.3499 107.834 36.4641 107.846 36.5935C107.857 36.7229 107.869 36.879 107.872 37.0617C107.876 37.2444 107.88 37.4613 107.88 37.7164C107.88 37.9714 107.88 38.1883 107.872 38.371C107.865 38.5537 107.857 38.7098 107.846 38.8392C107.834 38.9686 107.815 39.0828 107.796 39.178C107.773 39.2731 107.75 39.3683 107.72 39.4596C107.563 39.9392 107.303 40.297 106.94 40.5406C106.577 40.7842 106.133 40.9022 105.602 40.9022ZM105.602 40.1486C105.95 40.1486 106.233 40.0686 106.45 39.9126C106.668 39.7565 106.829 39.5282 106.924 39.2313C106.944 39.178 106.959 39.1095 106.974 39.0257C106.989 38.942 107.005 38.843 107.02 38.7212C107.035 38.5994 107.047 38.4586 107.051 38.2949C107.054 38.1313 107.058 37.9371 107.058 37.7126C107.058 37.488 107.058 37.2939 107.051 37.1302C107.043 36.9665 107.035 36.8257 107.02 36.7039C107.005 36.5821 106.989 36.4831 106.974 36.3994C106.959 36.3195 106.944 36.251 106.924 36.1939C106.829 35.897 106.668 35.6686 106.45 35.5125C106.233 35.3565 105.95 35.2765 105.602 35.2765C105.254 35.2765 104.975 35.3565 104.757 35.5125C104.539 35.6686 104.382 35.897 104.287 36.1939C104.268 36.2471 104.252 36.3157 104.237 36.3994C104.222 36.4793 104.207 36.5821 104.191 36.7039C104.176 36.8257 104.164 36.9665 104.161 37.1302C104.157 37.2939 104.153 37.488 104.153 37.7126C104.153 37.9371 104.153 38.1313 104.161 38.2949C104.168 38.4586 104.176 38.5994 104.191 38.7212C104.207 38.843 104.222 38.942 104.237 39.0257C104.252 39.1095 104.268 39.1742 104.287 39.2313C104.382 39.5282 104.539 39.7565 104.757 39.9126C104.971 40.0686 105.254 40.1486 105.602 40.1486Z" fill="#7D7150"/>
<path d="M109.333 34.717C109.333 34.6561 109.364 34.6256 109.425 34.6256H110.01C110.082 34.6256 110.136 34.6561 110.166 34.717L112.976 39.3492H113.014V34.717C113.014 34.6561 113.045 34.6256 113.106 34.6256H113.687C113.748 34.6256 113.779 34.6561 113.779 34.717V40.7118C113.779 40.7727 113.748 40.8032 113.687 40.8032H113.102C113.03 40.8032 112.976 40.7727 112.945 40.7118L110.128 36.0986H110.101V40.7118C110.101 40.7727 110.071 40.8032 110.01 40.8032H109.429C109.367 40.8032 109.337 40.7727 109.337 40.7118V34.717H109.333Z" fill="#7D7150"/>
<path d="M117.762 34.717C117.762 34.6561 117.792 34.6256 117.853 34.6256H121.592C121.653 34.6256 121.684 34.6561 121.684 34.717V35.2879C121.684 35.3488 121.653 35.3793 121.592 35.3793H118.637C118.603 35.3793 118.584 35.3983 118.584 35.4325V37.3128C118.584 37.3509 118.603 37.3661 118.637 37.3661H121.145C121.206 37.3661 121.237 37.3966 121.237 37.4575V38.0284C121.237 38.0893 121.206 38.1198 121.145 38.1198H118.637C118.603 38.1198 118.584 38.1388 118.584 38.1731V40.708C118.584 40.7689 118.553 40.7994 118.492 40.7994H117.853C117.792 40.7994 117.762 40.7689 117.762 40.708V34.7132V34.717Z" fill="#7D7150"/>
<path d="M125.025 40.9022C124.501 40.9022 124.058 40.7804 123.698 40.5406C123.335 40.297 123.075 39.9392 122.918 39.4596C122.888 39.3683 122.861 39.2731 122.842 39.178C122.819 39.0828 122.804 38.9686 122.792 38.8392C122.781 38.7098 122.769 38.5537 122.765 38.371C122.758 38.1883 122.758 37.9714 122.758 37.7164C122.758 37.4613 122.758 37.2444 122.765 37.0617C122.773 36.879 122.781 36.7229 122.792 36.5935C122.804 36.4641 122.823 36.3499 122.842 36.2548C122.865 36.1596 122.888 36.0644 122.918 35.9731C123.075 35.4935 123.335 35.1357 123.698 34.8921C124.061 34.6485 124.501 34.5305 125.025 34.5305C125.548 34.5305 125.999 34.6523 126.363 34.8921C126.726 35.1357 126.986 35.4935 127.142 35.9731C127.173 36.0644 127.2 36.1596 127.219 36.2548C127.242 36.3499 127.257 36.4641 127.269 36.5935C127.28 36.7229 127.292 36.879 127.295 37.0617C127.299 37.2444 127.303 37.4613 127.303 37.7164C127.303 37.9714 127.303 38.1883 127.295 38.371C127.288 38.5537 127.28 38.7098 127.269 38.8392C127.257 38.9686 127.238 39.0828 127.219 39.178C127.196 39.2731 127.173 39.3683 127.142 39.4596C126.986 39.9392 126.726 40.297 126.363 40.5406C125.999 40.7842 125.556 40.9022 125.025 40.9022ZM125.025 40.1486C125.373 40.1486 125.655 40.0686 125.873 39.9126C126.091 39.7565 126.252 39.5282 126.347 39.2313C126.366 39.178 126.382 39.1095 126.397 39.0257C126.412 38.942 126.428 38.843 126.443 38.7212C126.458 38.5994 126.47 38.4586 126.473 38.2949C126.477 38.1313 126.481 37.9371 126.481 37.7126C126.481 37.488 126.481 37.2939 126.473 37.1302C126.466 36.9665 126.458 36.8257 126.443 36.7039C126.428 36.5821 126.412 36.4831 126.397 36.3994C126.382 36.3195 126.366 36.251 126.347 36.1939C126.252 35.897 126.091 35.6686 125.873 35.5125C125.655 35.3565 125.373 35.2765 125.025 35.2765C124.677 35.2765 124.398 35.3565 124.18 35.5125C123.962 35.6686 123.805 35.897 123.71 36.1939C123.691 36.2471 123.675 36.3157 123.66 36.3994C123.645 36.4793 123.629 36.5821 123.614 36.7039C123.599 36.8257 123.587 36.9665 123.584 37.1302C123.58 37.2939 123.576 37.488 123.576 37.7126C123.576 37.9371 123.576 38.1313 123.584 38.2949C123.591 38.4586 123.599 38.5994 123.614 38.7212C123.629 38.843 123.645 38.942 123.66 39.0257C123.675 39.1095 123.691 39.1742 123.71 39.2313C123.805 39.5282 123.962 39.7565 124.18 39.9126C124.394 40.0686 124.677 40.1486 125.025 40.1486Z" fill="#7D7150"/>
<path d="M132.353 40.8032C132.3 40.8032 132.258 40.7727 132.235 40.7118L131 38.1883H129.635C129.601 38.1883 129.582 38.2073 129.582 38.2416V40.7118C129.582 40.7727 129.551 40.8032 129.49 40.8032H128.852C128.79 40.8032 128.76 40.7727 128.76 40.7118V34.717C128.76 34.6561 128.79 34.6256 128.852 34.6256H131.099C131.39 34.6256 131.657 34.6675 131.894 34.7512C132.131 34.835 132.338 34.9568 132.506 35.109C132.678 35.2651 132.808 35.4516 132.904 35.6723C132.999 35.8931 133.045 36.1367 133.045 36.4031C133.045 36.8218 132.934 37.1758 132.716 37.4651C132.498 37.7544 132.2 37.9599 131.822 38.0817L133.144 40.689C133.164 40.7195 133.167 40.7461 133.152 40.7651C133.141 40.788 133.118 40.7956 133.087 40.7956H132.349L132.353 40.8032ZM131.076 37.4346C131.439 37.4346 131.722 37.3471 131.921 37.1682C132.12 36.9893 132.219 36.7381 132.219 36.4108C132.219 36.0834 132.12 35.8322 131.921 35.6533C131.722 35.4744 131.439 35.3869 131.076 35.3869H129.631C129.597 35.3869 129.578 35.4059 129.578 35.4402V37.3852C129.578 37.4232 129.597 37.4384 129.631 37.4384H131.076V37.4346Z" fill="#7D7150"/>
<path d="M9.31934 44.2175C9.31934 44.1566 9.34992 44.1262 9.41108 44.1262H10.0036C10.0762 44.1262 10.1259 44.1566 10.1489 44.2175L12.0029 48.3778H12.0296L13.8492 44.2175C13.8722 44.1566 13.9219 44.1262 13.9945 44.1262H14.587C14.6482 44.1262 14.6788 44.1566 14.6788 44.2175V50.2124C14.6788 50.2733 14.6482 50.3037 14.587 50.3037H14.006C13.9448 50.3037 13.9142 50.2733 13.9142 50.2124V45.9151H13.8875L12.3507 49.3141C12.3202 49.3864 12.2666 49.4245 12.1864 49.4245H11.8232C11.7391 49.4245 11.6818 49.3864 11.6512 49.3141L10.1145 45.9151H10.0877V50.2124C10.0877 50.2733 10.0571 50.3037 9.99595 50.3037H9.4149C9.35374 50.3037 9.32316 50.2733 9.32316 50.2124V44.2175H9.31934Z" fill="#7D7150"/>
<path d="M17.9511 44.2175C17.9703 44.1566 18.0047 44.1262 18.062 44.1262H18.6545C18.7157 44.1262 18.7539 44.1566 18.773 44.2175L20.8984 50.2124C20.9176 50.2733 20.8984 50.3037 20.8335 50.3037H20.1951C20.1339 50.3037 20.0957 50.2733 20.0766 50.2124L19.6025 48.8688H17.0949L16.6208 50.2124C16.5979 50.2733 16.5559 50.3037 16.5023 50.3037H15.8639C15.8028 50.3037 15.7837 50.2733 15.799 50.2124L17.9511 44.2175ZM19.3388 48.1151L18.364 45.3175H18.3449L17.3586 48.1151H19.3388Z" fill="#7D7150"/>
<path d="M22.0225 44.2175C22.0225 44.1566 22.053 44.1262 22.1142 44.1262H22.7526C22.8138 44.1262 22.8443 44.1566 22.8443 44.2175V47.4338L25.482 44.2099C25.5202 44.1566 25.5661 44.13 25.6273 44.13H26.3765C26.4071 44.13 26.4262 44.1414 26.4377 44.1604C26.4453 44.1833 26.4377 44.2061 26.4147 44.2365L24.4805 46.5546L26.6059 50.2048C26.6479 50.2733 26.6288 50.3037 26.5524 50.3037H25.8222C25.7687 50.3037 25.7267 50.2771 25.6961 50.2238L23.9529 47.1788L22.8482 48.5034V50.2124C22.8482 50.2733 22.8176 50.3037 22.7564 50.3037H22.118C22.0569 50.3037 22.0263 50.2733 22.0263 50.2124V44.2175H22.0225Z" fill="#7D7150"/>
<path d="M27.7793 44.2175C27.7793 44.1566 27.8099 44.1262 27.871 44.1262H28.5094C28.5706 44.1262 28.6012 44.1566 28.6012 44.2175V47.4338L31.2388 44.2099C31.2771 44.1566 31.3229 44.13 31.3841 44.13H32.1333C32.1639 44.13 32.183 44.1414 32.1945 44.1604C32.2022 44.1833 32.1945 44.2061 32.1716 44.2365L30.2373 46.5546L32.3627 50.2048C32.4048 50.2733 32.3856 50.3037 32.3092 50.3037H31.5791C31.5255 50.3037 31.4835 50.2771 31.4529 50.2238L29.7098 47.1788L28.605 48.5034V50.2124C28.605 50.2733 28.5744 50.3037 28.5133 50.3037H27.8749C27.8137 50.3037 27.7831 50.2733 27.7831 50.2124V44.2175H27.7793Z" fill="#7D7150"/>
<path d="M35.1416 44.2175C35.1607 44.1566 35.1951 44.1262 35.2524 44.1262H35.8449C35.9061 44.1262 35.9443 44.1566 35.9634 44.2175L38.0889 50.2124C38.108 50.2733 38.0889 50.3037 38.0239 50.3037H37.3855C37.3243 50.3037 37.2861 50.2733 37.267 50.2124L36.793 48.8688H34.2853L33.8113 50.2124C33.7883 50.2733 33.7463 50.3037 33.6928 50.3037H33.0544C32.9932 50.3037 32.9741 50.2733 32.9894 50.2124L35.1416 44.2175ZM36.5254 48.1151L35.5506 45.3175H35.5315L34.5452 48.1151H36.5254Z" fill="#7D7150"/>
<path d="M39.209 44.2175C39.209 44.1566 39.2396 44.1262 39.3007 44.1262H39.9391C40.0003 44.1262 40.0309 44.1566 40.0309 44.2175V46.7525C40.0309 46.7906 40.05 46.8058 40.0844 46.8058H42.7679C42.8023 46.8058 42.8214 46.7867 42.8214 46.7525V44.2175C42.8214 44.1566 42.852 44.1262 42.9132 44.1262H43.5516C43.6127 44.1262 43.6433 44.1566 43.6433 44.2175V50.2124C43.6433 50.2733 43.6127 50.3037 43.5516 50.3037H42.9132C42.852 50.3037 42.8214 50.2733 42.8214 50.2124V47.6127C42.8214 47.5746 42.8023 47.5594 42.7679 47.5594H40.0844C40.05 47.5594 40.0309 47.5784 40.0309 47.6127V50.2124C40.0309 50.2733 40.0003 50.3037 39.9391 50.3037H39.3007C39.2396 50.3037 39.209 50.2733 39.209 50.2124V44.2175Z" fill="#7D7150"/>
<path d="M47.5766 48.9487C47.546 48.8573 47.5192 48.766 47.5001 48.6708C47.4772 48.5757 47.4619 48.4653 47.4504 48.3359C47.439 48.2065 47.4275 48.0504 47.4237 47.8677C47.416 47.685 47.416 47.4681 47.416 47.213C47.416 46.958 47.416 46.7411 47.4237 46.5584C47.4313 46.3757 47.439 46.2196 47.4504 46.0902C47.4619 45.9608 47.481 45.8466 47.5001 45.7552C47.5231 45.6601 47.546 45.5687 47.5766 45.4774C47.7333 44.9864 47.9894 44.621 48.3411 44.3812C48.6928 44.1414 49.1248 44.0234 49.637 44.0234C50.0996 44.0234 50.5009 44.13 50.845 44.3469C51.189 44.5639 51.449 44.8684 51.6248 45.268C51.6439 45.3213 51.6324 45.3632 51.5866 45.386L51.0399 45.6487C50.9788 45.6791 50.9367 45.6639 50.9138 45.603C50.7915 45.3594 50.6309 45.1615 50.4321 45.0092C50.2295 44.8531 49.9658 44.777 49.637 44.777C49.3083 44.777 49.0215 44.8569 48.8151 45.013C48.6087 45.1691 48.452 45.3936 48.3488 45.6867C48.3296 45.7552 48.3143 45.8237 48.2991 45.8999C48.2838 45.976 48.2723 46.0712 48.2608 46.1815C48.2532 46.2919 48.2455 46.4327 48.2379 46.6002C48.2303 46.7677 48.2302 46.9694 48.2302 47.213C48.2302 47.4566 48.2303 47.6584 48.2379 47.8258C48.2455 47.9933 48.2532 48.1303 48.2608 48.2445C48.2685 48.3549 48.2838 48.4539 48.2991 48.53C48.3143 48.6099 48.3296 48.6784 48.3488 48.7393C48.452 49.0286 48.6087 49.2532 48.8151 49.4131C49.0215 49.5691 49.2968 49.649 49.637 49.649C49.9772 49.649 50.2295 49.5729 50.4321 49.4169C50.6347 49.2608 50.7953 49.0629 50.9138 48.8231C50.9367 48.7622 50.9826 48.747 51.0399 48.7774L51.5866 49.04C51.6286 49.0629 51.6401 49.1047 51.6248 49.158C51.449 49.5577 51.189 49.866 50.845 50.0792C50.5009 50.2961 50.0996 50.4027 49.637 50.4027C49.1248 50.4027 48.6928 50.2847 48.3411 50.0449C47.9894 49.8051 47.7333 49.4397 47.5766 48.9487Z" fill="#7D7150"/>
<path d="M52.9326 44.2175C52.9326 44.1566 52.9632 44.1262 53.0244 44.1262H53.6628C53.7239 44.1262 53.7545 44.1566 53.7545 44.2175V50.2124C53.7545 50.2733 53.7239 50.3037 53.6628 50.3037H53.0244C52.9632 50.3037 52.9326 50.2733 52.9326 50.2124V44.2175Z" fill="#7D7150"/>
<path d="M56.7819 50.3037C56.7208 50.3037 56.6902 50.2733 56.6902 50.2124V44.9331C56.6902 44.895 56.6711 44.8798 56.6367 44.8798H54.9394C54.8782 44.8798 54.8477 44.8494 54.8477 44.7885V44.2175C54.8477 44.1566 54.8782 44.1262 54.9394 44.1262H59.2629C59.324 44.1262 59.3546 44.1566 59.3546 44.2175V44.7885C59.3546 44.8494 59.324 44.8798 59.2629 44.8798H57.5656C57.5274 44.8798 57.5121 44.8988 57.5121 44.9331V50.2124C57.5121 50.2733 57.4815 50.3037 57.4203 50.3037H56.7819Z" fill="#7D7150"/>
<path d="M61.7701 50.3037C61.709 50.3037 61.6784 50.2733 61.6784 50.2124V47.7764L59.8435 44.2251C59.8206 44.1604 59.8435 44.1262 59.9161 44.1262H60.5622C60.6157 44.1262 60.6616 44.1566 60.6998 44.2175L62.0874 46.8629H62.1065L63.4827 44.2175C63.5056 44.1566 63.5477 44.1262 63.6089 44.1262H64.2396C64.3122 44.1262 64.3352 44.1604 64.3122 44.2251L62.4773 47.7764V50.2124C62.4773 50.2733 62.4468 50.3037 62.3856 50.3037H61.7663H61.7701Z" fill="#7D7150"/>
<path d="M69.1523 44.2175C69.1714 44.1566 69.2058 44.1262 69.2632 44.1262H69.8557C69.9169 44.1262 69.9551 44.1566 69.9742 44.2175L72.0996 50.2124C72.1187 50.2733 72.0996 50.3037 72.0346 50.3037H71.3962C71.3351 50.3037 71.2968 50.2733 71.2777 50.2124L70.8037 48.8688H68.296L67.822 50.2124C67.7991 50.2733 67.757 50.3037 67.7035 50.3037H67.0651C67.004 50.3037 66.9848 50.2733 67.0001 50.2124L69.1523 44.2175ZM70.5399 48.1151L69.5652 45.3175H69.546L68.5598 48.1151H70.5399Z" fill="#7D7150"/>
<path d="M73.2236 44.2175C73.2236 44.1566 73.2542 44.1262 73.3154 44.1262H73.9003C73.9729 44.1262 74.0264 44.1566 74.057 44.2175L76.8667 48.8497H76.9049V44.2175C76.9049 44.1566 76.9355 44.1262 76.9966 44.1262H77.5777C77.6388 44.1262 77.6694 44.1566 77.6694 44.2175V50.2124C77.6694 50.2733 77.6388 50.3037 77.5777 50.3037H76.9928C76.9202 50.3037 76.8667 50.2733 76.8361 50.2124L74.0188 45.5992H73.992V50.2124C73.992 50.2733 73.9614 50.3037 73.9003 50.3037H73.3192C73.258 50.3037 73.2275 50.2733 73.2275 50.2124V44.2175H73.2236Z" fill="#7D7150"/>
<path d="M79.3242 44.2175C79.3242 44.1566 79.3548 44.1262 79.416 44.1262H81.507C82.5697 44.1262 83.2463 44.5639 83.533 45.4431C83.5559 45.5269 83.5789 45.6144 83.6018 45.7058C83.6248 45.7971 83.64 45.9075 83.6553 46.0407C83.6706 46.1739 83.6821 46.3338 83.6859 46.5203C83.6936 46.7068 83.6936 46.939 83.6936 47.2092C83.6936 47.4795 83.6936 47.7117 83.6859 47.8982C83.6783 48.0847 83.6706 48.2484 83.6553 48.3778C83.64 48.511 83.6209 48.6214 83.6018 48.7127C83.5827 48.8041 83.5559 48.8916 83.533 48.9754C83.2463 49.8546 82.5735 50.2923 81.507 50.2923H79.416C79.3548 50.2923 79.3242 50.2619 79.3242 50.201V44.2061V44.2175ZM80.1461 49.493C80.1461 49.5311 80.1652 49.5463 80.1996 49.5463H81.335C81.7096 49.5463 82.0154 49.4816 82.2448 49.3522C82.4741 49.2228 82.6423 49.0058 82.7455 48.7013C82.7647 48.648 82.7799 48.5833 82.7991 48.511C82.8182 48.4387 82.8296 48.3473 82.8411 48.2331C82.8487 48.1227 82.8564 47.9819 82.864 47.8182C82.8717 47.6546 82.8717 47.4528 82.8717 47.2092C82.8717 46.9656 82.8717 46.7639 82.864 46.6002C82.8564 46.4366 82.8487 46.2995 82.8411 46.1854C82.8335 46.075 82.8182 45.9798 82.7991 45.9075C82.7799 45.8352 82.7608 45.7705 82.7455 45.7172C82.6423 45.4127 82.4741 45.1995 82.2448 45.0663C82.0154 44.9369 81.7096 44.8722 81.335 44.8722H80.1996C80.1652 44.8722 80.1461 44.8912 80.1461 44.9255V49.4854V49.493Z" fill="#7D7150"/>
<path d="M87.4707 44.2175C87.4707 44.1566 87.5013 44.1262 87.5624 44.1262H88.2008C88.262 44.1262 88.2926 44.1566 88.2926 44.2175V46.7525C88.2926 46.7906 88.3117 46.8058 88.3461 46.8058H91.0296C91.064 46.8058 91.0831 46.7867 91.0831 46.7525V44.2175C91.0831 44.1566 91.1137 44.1262 91.1749 44.1262H91.8133C91.8744 44.1262 91.905 44.1566 91.905 44.2175V50.2124C91.905 50.2733 91.8744 50.3037 91.8133 50.3037H91.1749C91.1137 50.3037 91.0831 50.2733 91.0831 50.2124V47.6127C91.0831 47.5746 91.064 47.5594 91.0296 47.5594H88.3461C88.3117 47.5594 88.2926 47.5784 88.2926 47.6127V50.2124C88.2926 50.2733 88.262 50.3037 88.2008 50.3037H87.5624C87.5013 50.3037 87.4707 50.2733 87.4707 50.2124V44.2175Z" fill="#7D7150"/>
<path d="M95.6204 50.4027C95.0967 50.4027 94.6532 50.2809 94.2939 50.0411C93.9307 49.7975 93.6708 49.4397 93.5141 48.9601C93.4835 48.8688 93.4567 48.7736 93.4376 48.6785C93.4147 48.5833 93.3994 48.4691 93.3879 48.3397C93.3765 48.2103 93.365 48.0542 93.3612 47.8715C93.3535 47.6888 93.3535 47.4719 93.3535 47.2169C93.3535 46.9618 93.3535 46.7449 93.3612 46.5622C93.3688 46.3795 93.3765 46.2234 93.3879 46.094C93.3994 45.9646 93.4185 45.8504 93.4376 45.7552C93.4605 45.6601 93.4835 45.5649 93.5141 45.4736C93.6708 44.994 93.9307 44.6362 94.2939 44.3926C94.6571 44.149 95.0967 44.031 95.6204 44.031C96.1441 44.031 96.5952 44.1528 96.9583 44.3926C97.3215 44.6362 97.5814 44.994 97.7381 45.4736C97.7687 45.5649 97.7955 45.6601 97.8146 45.7552C97.8375 45.8504 97.8528 45.9646 97.8643 46.094C97.8758 46.2234 97.8872 46.3795 97.891 46.5622C97.8949 46.7449 97.8987 46.9618 97.8987 47.2169C97.8987 47.4719 97.8987 47.6888 97.891 47.8715C97.8834 48.0542 97.8758 48.2103 97.8643 48.3397C97.8528 48.4691 97.8337 48.5833 97.8146 48.6785C97.7917 48.7736 97.7687 48.8688 97.7381 48.9601C97.5814 49.4397 97.3215 49.7975 96.9583 50.0411C96.5952 50.2847 96.1517 50.4027 95.6204 50.4027ZM95.6204 49.6491C95.9682 49.6491 96.2511 49.5691 96.469 49.4131C96.6869 49.257 96.8475 49.0286 96.943 48.7318C96.9621 48.6785 96.9774 48.61 96.9927 48.5262C97.008 48.4425 97.0233 48.3435 97.0386 48.2217C97.0539 48.0999 97.0653 47.9591 97.0692 47.7954C97.073 47.6317 97.0768 47.4376 97.0768 47.2131C97.0768 46.9885 97.0768 46.7944 97.0692 46.6307C97.0615 46.467 97.0539 46.3262 97.0386 46.2044C97.0233 46.0826 97.008 45.9836 96.9927 45.8999C96.9774 45.82 96.9621 45.7514 96.943 45.6943C96.8475 45.3975 96.6869 45.1691 96.469 45.013C96.2511 44.857 95.9682 44.777 95.6204 44.777C95.2725 44.777 94.9934 44.857 94.7756 45.013C94.5577 45.1691 94.4009 45.3975 94.3054 45.6943C94.2862 45.7476 94.271 45.8161 94.2557 45.8999C94.2404 45.9798 94.2251 46.0826 94.2098 46.2044C94.1945 46.3262 94.183 46.467 94.1792 46.6307C94.1754 46.7944 94.1716 46.9885 94.1716 47.2131C94.1716 47.4376 94.1716 47.6317 94.1792 47.7954C94.1869 47.9591 94.1945 48.0999 94.2098 48.2217C94.2251 48.3435 94.2404 48.4425 94.2557 48.5262C94.271 48.61 94.2862 48.6747 94.3054 48.7318C94.4009 49.0286 94.5577 49.257 94.7756 49.4131C94.9896 49.5691 95.2725 49.6491 95.6204 49.6491Z" fill="#7D7150"/>
<path d="M99.3516 44.2175C99.3516 44.1566 99.3822 44.1262 99.4433 44.1262H100.082C100.143 44.1262 100.173 44.1566 100.173 44.2175V49.4968C100.173 49.5349 100.193 49.5501 100.227 49.5501H103.182C103.243 49.5501 103.274 49.5805 103.274 49.6414V50.2124C103.274 50.2733 103.243 50.3037 103.182 50.3037H99.4433C99.3822 50.3037 99.3516 50.2733 99.3516 50.2124V44.2175Z" fill="#7D7150"/>
<path d="M104.898 50.3037C104.837 50.3037 104.806 50.2733 104.806 50.2124V47.7764L102.971 44.2251C102.948 44.1604 102.971 44.1262 103.044 44.1262H103.69C103.744 44.1262 103.789 44.1566 103.828 44.2175L105.215 46.8629H105.234L106.611 44.2175C106.634 44.1566 106.676 44.1262 106.737 44.1262H107.368C107.44 44.1262 107.463 44.1604 107.44 44.2251L105.605 47.7764V50.2124C105.605 50.2733 105.575 50.3037 105.514 50.3037H104.894H104.898Z" fill="#7D7150"/>
<path d="M112.551 50.4027C112.333 50.4027 112.115 50.3799 111.901 50.338C111.687 50.2962 111.488 50.2391 111.301 50.1705C111.114 50.102 110.938 50.0183 110.781 49.9269C110.624 49.8318 110.487 49.7366 110.372 49.6301C110.33 49.5882 110.326 49.5425 110.364 49.493L110.766 49.021C110.804 48.9792 110.846 48.9754 110.892 49.0134C111.094 49.1695 111.343 49.3179 111.641 49.4512C111.939 49.5844 112.268 49.6529 112.627 49.6529C113.059 49.6529 113.396 49.5577 113.637 49.3636C113.877 49.1695 113.996 48.9145 113.996 48.6024C113.996 48.4691 113.973 48.3473 113.931 48.2408C113.889 48.1304 113.816 48.0352 113.717 47.9515C113.617 47.8677 113.484 47.7954 113.319 47.7345C113.155 47.6736 112.948 47.628 112.7 47.5975L112.39 47.5518C111.175 47.3882 110.567 46.821 110.567 45.8428C110.567 45.5688 110.613 45.3214 110.708 45.0968C110.804 44.8722 110.938 44.6819 111.114 44.5258C111.289 44.3698 111.503 44.248 111.752 44.1642C112 44.0805 112.279 44.0386 112.593 44.0386C112.956 44.0386 113.308 44.0919 113.637 44.1985C113.969 44.3051 114.248 44.4421 114.481 44.6134C114.531 44.6514 114.535 44.6933 114.5 44.739L114.191 45.2376C114.153 45.2795 114.111 45.2871 114.065 45.2566C113.809 45.1006 113.564 44.9826 113.327 44.9065C113.09 44.8303 112.838 44.7923 112.57 44.7923C112.188 44.7923 111.893 44.8836 111.695 45.0701C111.492 45.2566 111.393 45.4964 111.393 45.7933C111.393 46.0522 111.488 46.2691 111.683 46.4328C111.878 46.6003 112.215 46.7144 112.696 46.783L112.998 46.8286C113.606 46.9124 114.061 47.0951 114.367 47.3729C114.673 47.6508 114.822 48.0466 114.822 48.5529C114.822 48.8269 114.776 49.0743 114.68 49.3027C114.585 49.5311 114.443 49.7252 114.252 49.8889C114.061 50.0526 113.824 50.182 113.541 50.2733C113.258 50.3685 112.929 50.4141 112.559 50.4141L112.551 50.4027Z" fill="#7D7150"/>
<path d="M116.202 44.2175C116.202 44.1566 116.233 44.1262 116.294 44.1262H116.932C116.993 44.1262 117.024 44.1566 117.024 44.2175V50.2124C117.024 50.2733 116.993 50.3037 116.932 50.3037H116.294C116.233 50.3037 116.202 50.2733 116.202 50.2124V44.2175Z" fill="#7D7150"/>
<path d="M120.051 50.3037C119.99 50.3037 119.96 50.2733 119.96 50.2124V44.9331C119.96 44.895 119.941 44.8798 119.906 44.8798H118.209C118.148 44.8798 118.117 44.8494 118.117 44.7885V44.2175C118.117 44.1566 118.148 44.1262 118.209 44.1262H122.532C122.594 44.1262 122.624 44.1566 122.624 44.2175V44.7885C122.624 44.8494 122.594 44.8798 122.532 44.8798H120.835C120.797 44.8798 120.782 44.8988 120.782 44.9331V50.2124C120.782 50.2733 120.751 50.3037 120.69 50.3037H120.051Z" fill="#7D7150"/>
<path d="M123.721 44.2175C123.721 44.1566 123.751 44.1262 123.812 44.1262H127.551C127.612 44.1262 127.643 44.1566 127.643 44.2175V44.7885C127.643 44.8494 127.612 44.8798 127.551 44.8798H124.596C124.562 44.8798 124.543 44.8988 124.543 44.9331V46.7487C124.543 46.7867 124.562 46.802 124.596 46.802H127.104C127.165 46.802 127.196 46.8324 127.196 46.8933V47.4643C127.196 47.5252 127.165 47.5556 127.104 47.5556H124.596C124.562 47.5556 124.543 47.5746 124.543 47.6089V49.4892C124.543 49.5273 124.562 49.5425 124.596 49.5425H127.551C127.612 49.5425 127.643 49.5729 127.643 49.6338V50.2048C127.643 50.2657 127.612 50.2961 127.551 50.2961H123.812C123.751 50.2961 123.721 50.2657 123.721 50.2048V44.2099V44.2175Z" fill="#7D7150"/>
<path d="M130.873 50.4027C130.655 50.4027 130.437 50.3799 130.223 50.338C130.009 50.2962 129.81 50.2391 129.623 50.1705C129.436 50.102 129.26 50.0183 129.103 49.9269C128.947 49.8318 128.809 49.7366 128.694 49.6301C128.652 49.5882 128.648 49.5425 128.687 49.493L129.088 49.021C129.126 48.9792 129.168 48.9754 129.214 49.0134C129.417 49.1695 129.665 49.3179 129.963 49.4512C130.262 49.5844 130.59 49.6529 130.95 49.6529C131.382 49.6529 131.718 49.5577 131.959 49.3636C132.2 49.1695 132.318 48.9145 132.318 48.6024C132.318 48.4691 132.295 48.3473 132.253 48.2408C132.211 48.1304 132.138 48.0352 132.039 47.9515C131.94 47.8677 131.806 47.7954 131.642 47.7345C131.477 47.6736 131.271 47.628 131.022 47.5975L130.713 47.5518C129.497 47.3882 128.889 46.821 128.889 45.8428C128.889 45.5688 128.935 45.3214 129.031 45.0968C129.126 44.8722 129.26 44.6819 129.436 44.5258C129.612 44.3698 129.826 44.248 130.074 44.1642C130.323 44.0805 130.602 44.0386 130.915 44.0386C131.278 44.0386 131.63 44.0919 131.959 44.1985C132.291 44.3051 132.57 44.4421 132.804 44.6134C132.853 44.6514 132.857 44.6933 132.823 44.739L132.513 45.2376C132.475 45.2795 132.433 45.2871 132.387 45.2566C132.131 45.1006 131.886 44.9826 131.649 44.9065C131.412 44.8303 131.16 44.7923 130.892 44.7923C130.51 44.7923 130.216 44.8836 130.017 45.0701C129.814 45.2566 129.715 45.4964 129.715 45.7933C129.715 46.0522 129.81 46.2691 130.005 46.4328C130.2 46.6003 130.537 46.7144 131.018 46.783L131.32 46.8286C131.928 46.9124 132.383 47.0951 132.689 47.3729C132.995 47.6508 133.144 48.0466 133.144 48.5529C133.144 48.8269 133.098 49.0743 133.002 49.3027C132.907 49.5311 132.765 49.7252 132.574 49.8889C132.383 50.0526 132.146 50.182 131.863 50.2733C131.58 50.3685 131.252 50.4141 130.881 50.4141L130.873 50.4027Z" fill="#7D7150"/>
<path d="M12.8436 8.64014C12.4652 8.64014 12.1555 8.95606 12.1555 9.32527C12.1555 9.69447 12.4537 10.0104 12.8436 10.0104C13.2335 10.0104 13.5279 9.69447 13.5279 9.32527C13.5279 8.95606 13.2106 8.64014 12.8436 8.64014ZM11.154 8.64014C10.7755 8.64014 10.4697 8.95606 10.4697 9.32527C10.4697 9.69447 10.7526 10.0104 11.154 10.0104C11.5554 10.0104 11.8383 9.70589 11.8383 9.32527C11.8383 8.94464 11.5363 8.64014 11.154 8.64014Z" fill="#FAFAFA"/>
<path d="M26.3041 10.5852C24.4768 10.5852 23.5594 11.8032 23.5594 13.1354C23.5594 13.8777 23.7582 14.3458 24.1443 14.6351C24.0946 14.6237 23.8843 14.5628 23.5594 14.5628H21.8392C21.736 12.5455 20.8376 11.4949 19.5073 10.8973L22.08 9.35199V7.97412L17.9018 10.5814V11.6015C19.5838 11.9897 20.4248 12.9337 20.4783 14.5628H14.3467V10.9468C14.3467 10.9468 13.3872 10.5814 12.1295 10.5814C10.1952 10.5814 9.34277 11.8413 9.34277 13.2154C9.34277 14.7074 10.115 15.6552 12.1601 15.6552H28.6894V12.9946C28.6894 11.5216 27.9517 10.5776 26.3041 10.5776M12.9934 14.5666H12.3207C11.2121 14.5666 10.7381 14.0489 10.7381 13.0936C10.7381 12.2752 11.2006 11.6776 11.9919 11.6776C12.5959 11.6776 12.9934 11.8641 12.9934 11.8641V14.5666ZM27.3286 14.5666H26.5258C25.4287 14.5666 24.947 14.0832 24.947 13.0936C24.947 12.2752 25.4096 11.6776 26.2009 11.6776C26.9081 11.6776 27.3286 12.1192 27.3286 13.1697V14.5666Z" fill="#FAFAFA"/>
<path d="M35.7078 8.64014C35.3293 8.64014 35.0197 8.95606 35.0197 9.32527C35.0197 9.69447 35.3141 10.0104 35.7078 10.0104C36.1015 10.0104 36.3921 9.69447 36.3921 9.32527C36.3921 8.95606 36.0748 8.64014 35.7078 8.64014ZM34.0182 8.64014C33.6397 8.64014 33.3301 8.95606 33.3301 9.32527C33.3301 9.69447 33.6168 10.0104 34.0182 10.0104C34.4195 10.0104 34.7062 9.70589 34.7062 9.32527C34.7062 8.94464 34.3966 8.64014 34.0182 8.64014Z" fill="#FAFAFA"/>
<path d="M42.5652 8.63257C42.1791 8.63257 41.8389 8.96752 41.8389 9.35576C41.8389 9.744 42.1638 10.0828 42.5652 10.0828C42.9666 10.0828 43.2953 9.75923 43.2953 9.35576C43.2953 8.9523 42.9589 8.63257 42.5652 8.63257Z" fill="#FAFAFA"/>
<path d="M46.9461 16.4279C46.5676 16.4279 46.258 16.7286 46.258 17.1092C46.258 17.4898 46.5523 17.7943 46.9461 17.7943C47.3398 17.7943 47.6303 17.4784 47.6303 17.1092C47.6303 16.74 47.3131 16.4279 46.9461 16.4279ZM45.2564 16.4279C44.878 16.4279 44.5684 16.7286 44.5684 17.1092C44.5684 17.4898 44.8665 17.7943 45.2564 17.7943C45.6464 17.7943 45.9407 17.4784 45.9407 17.1092C45.9407 16.74 45.6234 16.4279 45.2564 16.4279Z" fill="#FAFAFA"/>
<path d="M45.4363 10.7184V14.5666H43.265V10.7184H41.8697V14.5666H37.2061V10.9506C37.2061 10.9506 36.2466 10.5852 34.9889 10.5852C33.0546 10.5852 32.2021 11.8451 32.2021 13.2191C32.2021 14.7112 32.9743 15.659 35.0195 15.659H46.8316V10.7184H45.4363ZM35.8528 14.5666H35.18C34.0714 14.5666 33.5974 14.0489 33.5974 13.0935C33.5974 12.2752 34.06 11.6776 34.8513 11.6776C35.4553 11.6776 35.8528 11.8641 35.8528 11.8641V14.5666Z" fill="#FAFAFA"/>
<path d="M61.832 8.24817V14.5666H59.3243V13.0022C59.3243 11.5292 58.5865 10.5852 56.9389 10.5852C55.1117 10.5852 54.1942 11.8032 54.1942 13.1354C54.1942 14.2164 53.7852 14.5666 53.1506 14.5666H52.646C52.5199 12.2219 51.3081 11.0344 49.133 10.4672L48.7966 11.6243C50.4595 12.043 51.224 13.0098 51.2852 14.5628H48.1582V15.659H53.2959C54.1828 15.659 54.6071 15.3316 54.7944 14.8482C55.1652 15.3316 55.643 15.659 57.1568 15.659H63.2234V8.24817H61.8282H61.832ZM57.9634 14.5666H57.1607C56.0635 14.5666 55.5819 14.0832 55.5819 13.0936C55.5819 12.2752 56.0444 11.6776 56.8395 11.6776C57.5467 11.6776 57.9672 12.1191 57.9672 13.1697V14.5666H57.9634Z" fill="#FAFAFA"/>
<path d="M70.414 8.64014C70.0356 8.64014 69.7298 8.95606 69.7298 9.32527C69.7298 9.69447 70.0241 10.0104 70.414 10.0104C70.8039 10.0104 71.1021 9.69447 71.1021 9.32527C71.1021 8.95606 70.7848 8.64014 70.414 8.64014ZM68.7244 8.64014C68.3459 8.64014 68.0439 8.95606 68.0439 9.32527C68.0439 9.69447 68.3268 10.0104 68.7244 10.0104C69.1219 10.0104 69.4125 9.70589 69.4125 9.32527C69.4125 8.94464 69.1105 8.64014 68.7244 8.64014Z" fill="#FAFAFA"/>
<path d="M76.1666 16.4279C75.7843 16.4279 75.4785 16.7286 75.4785 17.1092C75.4785 17.4898 75.7729 17.7943 76.1666 17.7943C76.5603 17.7943 76.8509 17.4784 76.8509 17.1092C76.8509 16.74 76.5336 16.4279 76.1666 16.4279ZM77.8562 16.4279C77.474 16.4279 77.172 16.7286 77.172 17.1092C77.172 17.4898 77.4663 17.7943 77.8562 17.7943C78.2461 17.7943 78.5405 17.4784 78.5405 17.1092C78.5405 16.74 78.2232 16.4279 77.8562 16.4279Z" fill="#FAFAFA"/>
<path d="M95.7466 8.24815V14.5666H93.5256V13.0022C93.5256 11.5292 92.7879 10.5852 91.1403 10.5852C89.3168 10.5852 88.3994 11.8032 88.3994 13.1354C88.3994 14.2164 87.9866 14.5666 87.3558 14.5666H86.3543V8.24815H84.959V14.5666H83.2388C83.1317 12.5492 82.2372 11.4987 80.9031 10.9011L83.4758 9.35578V7.97791L79.2976 10.5852V11.6053C80.9795 11.9935 81.8205 12.9375 81.8741 14.5666H77.7188V10.7184H76.3235V14.5666H71.9121V10.9506C71.9121 10.9506 70.9526 10.5852 69.695 10.5852C67.7607 10.5852 66.9082 11.8451 66.9082 13.2191C66.9082 14.7112 67.6804 15.659 69.7294 15.659H87.4972C88.3803 15.659 88.8046 15.3316 88.9957 14.8482C89.3627 15.3316 89.8367 15.659 91.3582 15.659H97.1343V8.24815H95.739H95.7466ZM70.5627 14.5666H69.8899C68.7813 14.5666 68.3073 14.0489 68.3073 13.0935C68.3073 12.2752 68.7699 11.6776 69.5612 11.6776C70.1651 11.6776 70.5627 11.8641 70.5627 11.8641V14.5666ZM92.1609 14.5666H91.362C90.2611 14.5666 89.7794 14.0832 89.7794 13.0935C89.7794 12.2752 90.2419 11.6776 91.0332 11.6776C91.7404 11.6776 92.1609 12.1191 92.1609 13.1697V14.5666Z" fill="#FAFAFA"/>
<path d="M100.22 8.25195H98.8242V15.659H100.22V8.25195Z" fill="#FAFAFA"/>
<path d="M107.127 8.64014C106.748 8.64014 106.439 8.95606 106.439 9.32527C106.439 9.69447 106.733 10.0104 107.127 10.0104C107.521 10.0104 107.815 9.69447 107.815 9.32527C107.815 8.95606 107.494 8.64014 107.127 8.64014ZM105.441 8.64014C105.063 8.64014 104.753 8.95606 104.753 9.32527C104.753 9.69447 105.04 10.0104 105.441 10.0104C105.842 10.0104 106.125 9.70589 106.125 9.32527C106.125 8.94464 105.819 8.64014 105.441 8.64014Z" fill="#FAFAFA"/>
<path d="M114.294 9.47002C113.706 9.47002 113.53 9.32158 113.53 9.08178C113.53 8.88385 113.69 8.72399 114.05 8.72399C114.325 8.72399 114.566 8.77728 114.623 8.78489L114.757 8.05028C114.684 8.03886 114.421 7.98938 114.134 7.98938C113.025 7.98938 112.586 8.55651 112.586 9.07036C112.586 9.25687 112.693 9.44718 112.849 9.53092C112.7 9.49666 112.444 9.46621 112.215 9.46621V10.2199H114.94V9.46621H114.294V9.47002Z" fill="#FAFAFA"/>
<path d="M118.423 16.4279C118.044 16.4279 117.738 16.7286 117.738 17.1092C117.738 17.4898 118.033 17.7943 118.423 17.7943C118.813 17.7943 119.111 17.4784 119.111 17.1092C119.111 16.74 118.794 16.4279 118.423 16.4279ZM116.737 16.4279C116.358 16.4279 116.049 16.7286 116.049 17.1092C116.049 17.4898 116.343 17.7943 116.737 17.7943C117.131 17.7943 117.425 17.4784 117.425 17.1092C117.425 16.74 117.108 16.4279 116.737 16.4279Z" fill="#FAFAFA"/>
<path d="M128.687 8.24819V14.5666H126.711V14.5362C126.711 11.4645 125.213 10.216 122.575 10.216C121.726 10.216 120.767 10.3835 120.01 10.6271L120.144 11.7081C120.809 11.4873 121.677 11.297 122.403 11.297C124.49 11.297 125.381 12.2638 125.381 14.4372V14.5628H124.326V14.3192C124.326 13.1316 123.798 12.1039 122.384 12.1039C121.107 12.1039 120.358 12.85 120.358 13.8701C120.358 14.3116 120.568 14.559 120.614 14.6123C120.572 14.6047 120.385 14.5628 120.136 14.5628H118.286V10.7147H116.894V14.5628H114.429V10.7147H113.037V14.5628H108.626V10.9468C108.626 10.9468 107.666 10.5814 106.405 10.5814C104.478 10.5814 103.622 11.8413 103.622 13.2154C103.622 14.7074 104.394 15.6552 106.439 15.6552H130.075V8.24438H128.684L128.687 8.24819ZM107.277 14.5666H106.604C105.491 14.5666 105.021 14.049 105.021 13.0936C105.021 12.2752 105.484 11.6738 106.275 11.6738C106.879 11.6738 107.277 11.8642 107.277 11.8642V14.5666ZM123.187 14.6085H122.491C121.952 14.6085 121.486 14.3687 121.486 13.7787C121.486 13.3372 121.795 13.0669 122.277 13.0669C122.9 13.0669 123.187 13.497 123.187 14.3078V14.6085Z" fill="#FAFAFA"/>
<path d="M133.16 8.25195H131.769V15.659H133.16V8.25195Z" fill="#FAFAFA"/>
<path d="M12.8475 20.177C12.4691 20.177 12.1594 20.4929 12.1594 20.8583C12.1594 21.2237 12.4576 21.5435 12.8475 21.5435C13.2374 21.5435 13.5356 21.2275 13.5356 20.8583C13.5356 20.4891 13.2183 20.177 12.8475 20.177ZM11.1579 20.177C10.7794 20.177 10.4736 20.4929 10.4736 20.8583C10.4736 21.2237 10.7565 21.5435 11.1579 21.5435C11.5593 21.5435 11.846 21.2428 11.846 20.8583C11.846 20.4739 11.544 20.177 11.1579 20.177Z" fill="#FAFAFA"/>
<path d="M23.5364 21.8365L22.1756 22.0269C22.3552 22.8262 22.4852 23.793 22.4852 24.8435C22.4852 25.1708 22.4623 25.6809 22.4202 26.1072H22.1335C21.1587 26.1072 20.8797 25.9397 20.8797 25.1099V22.4722H19.5417V24.8473C19.5417 25.8674 19.2321 26.1947 18.6854 26.1947C18.0623 26.1947 17.9553 25.7837 17.9553 24.8359V22.8947H16.56V24.8092C16.56 25.8369 16.2963 26.1148 15.612 26.1148H14.3467V22.4988C14.3467 22.4988 13.3872 22.1296 12.1295 22.1296C10.1952 22.1296 9.34277 23.3933 9.34277 24.7674C9.34277 26.2594 10.115 27.2034 12.1601 27.2034H15.6005C16.3727 27.2034 16.7932 26.9522 17.0035 26.4688C17.1717 26.9712 17.7336 27.2871 18.4179 27.2871C19.2436 27.2871 19.8017 26.9293 20.0119 26.4764C20.3177 27.0549 20.8797 27.2034 21.9883 27.2034H23.7276C23.8231 26.4574 23.8767 25.521 23.8767 24.7522C23.8767 23.713 23.7429 22.6853 23.5403 21.8404M12.9934 26.1034H12.3207C11.2121 26.1034 10.7381 25.5857 10.7381 24.6304C10.7381 23.8082 11.2006 23.2106 11.9919 23.2106C12.5959 23.2106 12.9934 23.4009 12.9934 23.4009V26.1034Z" fill="#FAFAFA"/>
<path d="M33.3678 20.177C32.9893 20.177 32.6797 20.4929 32.6797 20.8583C32.6797 21.2237 32.9664 21.5435 33.3678 21.5435C33.7692 21.5435 34.052 21.2428 34.052 20.8583C34.052 20.4739 33.7462 20.177 33.3678 20.177ZM35.0574 20.177C34.679 20.177 34.3731 20.4929 34.3731 20.8583C34.3731 21.2237 34.6675 21.5435 35.0574 21.5435C35.4473 21.5435 35.7455 21.2275 35.7455 20.8583C35.7455 20.4891 35.4244 20.177 35.0574 20.177Z" fill="#FAFAFA"/>
<path d="M45.6467 19.7888V26.1034H43.5022V24.5352C43.5022 23.066 42.7644 22.1183 41.1168 22.1183C39.2896 22.1183 38.3683 23.3401 38.3683 24.6723C38.3683 25.7532 37.9593 26.1034 37.3247 26.1034H36.9577C36.5869 26.1034 36.1435 26.1529 36.1435 26.1529C36.5449 25.818 36.7551 25.1747 36.7551 24.5657C36.7551 22.8909 35.7956 22.1145 34.3086 22.1145C32.7031 22.1145 31.6174 23.2183 31.6174 24.7332C31.6174 25.3346 31.7856 25.8218 32.1144 26.1529C32.1144 26.1529 31.7856 26.1034 31.4569 26.1034H29.8131C29.687 23.7588 28.4752 22.5712 26.3001 22.0041L25.9637 23.1612C27.6304 23.5799 28.3911 24.5505 28.4522 26.1034H25.3291V27.1958H37.4738C38.3607 27.1958 38.785 26.8723 38.9723 26.3851C39.3431 26.8723 39.8209 27.1958 41.3347 27.1958H47.042V19.7888H45.6467ZM34.1825 26.1034C33.4103 26.1034 33.0204 25.6086 33.0204 24.619C33.0204 23.6293 33.6014 23.2145 34.2054 23.2145C34.9967 23.2145 35.3637 23.7169 35.3637 24.6418C35.3637 25.62 34.8514 26.1034 34.1825 26.1034ZM42.1375 26.1034H41.3309C40.2376 26.1034 39.7521 25.6162 39.7521 24.6304C39.7521 23.8082 40.2147 23.2107 41.006 23.2107C41.7132 23.2107 42.1337 23.6522 42.1337 24.6989V26.0996L42.1375 26.1034Z" fill="#FAFAFA"/>
<path d="M50.1228 19.7888H48.7275V27.1958H50.1228V19.7888Z" fill="#FAFAFA"/>
<path d="M62.6384 26.1035V27.1959H56.1093V27.2377C56.1093 28.5852 55.6467 29.8679 53.5022 29.8679C53.1773 29.8679 52.8714 29.826 52.6191 29.7613L52.7262 28.6537C52.9785 28.7298 53.2461 28.7831 53.5825 28.7831C54.2973 28.7831 54.7178 28.4443 54.7178 27.3101V22.2553H56.1131V26.0997H58.831C58.3685 25.8218 58.0168 25.2356 58.0168 24.5315C58.0168 23.2297 58.9151 22.1145 60.773 22.1145C61.4916 22.1145 62.0841 22.3162 62.0841 22.3162L61.8395 23.4201C61.8395 23.4201 61.354 23.1993 60.7424 23.1993C59.9511 23.1993 59.4121 23.7246 59.4121 24.5315C59.4121 25.426 60.1422 26.0997 61.8166 26.0997H62.6423L62.6384 26.1035Z" fill="#FAFAFA"/>
<path d="M70.7613 20.2304C70.3829 20.2304 70.0732 20.5463 70.0732 20.9155C70.0732 21.2847 70.3829 21.6007 70.7613 21.6007C71.1398 21.6007 71.4494 21.2847 71.4494 20.9155C71.4494 20.5463 71.1321 20.2304 70.7613 20.2304ZM71.6367 18.8525C71.2583 18.8525 70.9486 19.1685 70.9486 19.5339C70.9486 19.8993 71.2583 20.219 71.6367 20.219C72.0152 20.219 72.3248 19.8993 72.3248 19.5339C72.3248 19.1685 72.019 18.8525 71.6367 18.8525ZM72.5045 20.2304C72.1337 20.2304 71.8164 20.5463 71.8164 20.9155C71.8164 21.2847 72.1337 21.6007 72.5045 21.6007C72.8753 21.6007 73.1849 21.2847 73.1849 20.9155C73.1849 20.5463 72.8829 20.2304 72.5045 20.2304Z" fill="#FAFAFA"/>
<path d="M84.3854 19.7888V26.1034H82.4511V24.5352C82.4511 23.066 81.7133 22.1183 80.0657 22.1183C78.2385 22.1183 77.3172 23.3401 77.3172 24.6723C77.3172 25.7532 76.9082 26.1034 76.2736 26.1034H75.3179C75.3485 25.6391 75.36 25.1671 75.36 24.7446C75.36 23.7055 75.2224 22.6778 75.0198 21.8328L73.6589 22.0231C73.8385 22.8224 73.9685 23.7892 73.9685 24.8397C73.9685 25.1671 73.9494 25.6771 73.9073 26.1034H73.6206C72.6497 26.1034 72.3668 25.9359 72.3668 25.1062V22.4684H71.0289V24.8435C71.0289 25.8636 70.723 26.191 70.1726 26.191C69.5495 26.191 69.4424 25.7799 69.4424 24.8321V22.8909H68.0472V24.8055C68.0472 25.8332 67.7872 26.111 67.0991 26.111H65.2107V19.7964H63.8154V27.2034H67.0838C67.8522 27.2034 68.2765 26.9522 68.4868 26.4688C68.6588 26.9713 69.2169 27.2872 69.9012 27.2872C70.7269 27.2872 71.285 26.9294 71.4952 26.4764C71.801 27.055 72.363 27.2034 73.4716 27.2034H76.4303C77.3134 27.2034 77.7377 26.8799 77.925 26.3927C78.2958 26.8799 78.7736 27.2034 80.2874 27.2034H85.7768V19.7964H84.3854V19.7888ZM81.094 26.1034H80.2874C79.1941 26.1034 78.7087 25.6162 78.7087 24.6304C78.7087 23.8082 79.1712 23.2107 79.9625 23.2107C80.6697 23.2107 81.0902 23.6522 81.0902 24.6989V26.0996L81.094 26.1034Z" fill="#FAFAFA"/>
<path d="M88.8583 19.7888H87.4668V27.1958H88.8583V19.7888Z" fill="#FAFAFA"/>
<path d="M90.3496 29.708L90.4337 28.5737C90.4337 28.5737 91.2555 28.7526 92.0812 28.7526C93.1784 28.7526 93.9085 28.3415 93.9085 27.3557V27.1996H93.0751C91.0262 27.1996 90.2578 26.2557 90.2578 24.7598C90.2578 23.3819 91.1141 22.1221 93.0446 22.1221C94.3022 22.1221 95.2617 22.4913 95.2617 22.4913V27.2225C95.2617 28.6727 94.3099 29.8488 91.9589 29.8488C91.1676 29.8488 90.3534 29.7118 90.3534 29.7118M93.9085 23.401C93.9085 23.401 93.5071 23.2107 92.9069 23.2107C92.1156 23.2107 91.6493 23.8082 91.6493 24.6304C91.6493 25.5858 92.1233 26.1034 93.2319 26.1034H93.9085V23.401Z" fill="#FAFAFA"/>
<path d="M102.154 20.177C101.776 20.177 101.466 20.4929 101.466 20.8583C101.466 21.2237 101.764 21.5435 102.154 21.5435C102.544 21.5435 102.842 21.2275 102.842 20.8583C102.842 20.4891 102.525 20.177 102.154 20.177ZM100.465 20.177C100.086 20.177 99.7803 20.4929 99.7803 20.8583C99.7803 21.2237 100.063 21.5435 100.465 21.5435C100.866 21.5435 101.149 21.2428 101.149 20.8583C101.149 20.4739 100.847 20.177 100.465 20.177Z" fill="#FAFAFA"/>
<path d="M108.427 22.1221C106.6 22.1221 105.682 23.3439 105.682 24.6761C105.682 25.4183 105.881 25.8827 106.267 26.172C106.217 26.1606 106.007 26.1035 105.682 26.1035H103.652V22.4875C103.652 22.4875 102.693 22.1183 101.439 22.1183C99.5048 22.1183 98.6523 23.382 98.6523 24.7561C98.6523 26.2481 99.4207 27.1921 101.47 27.1921H110.816V24.5315C110.816 23.0623 110.078 22.1145 108.431 22.1145M102.299 26.1035H101.626C100.518 26.1035 100.044 25.5858 100.044 24.6304C100.044 23.8083 100.506 23.2107 101.298 23.2107C101.902 23.2107 102.299 23.401 102.299 23.401V26.1035ZM109.451 26.1035H108.649C107.552 26.1035 107.07 25.6163 107.07 24.6304C107.07 23.8083 107.532 23.2107 108.324 23.2107C109.031 23.2107 109.451 23.6522 109.451 24.699V26.0997V26.1035Z" fill="#FAFAFA"/>
<path d="M128.684 19.7888V26.1034H126.753V24.5352C126.753 23.066 126.015 22.1183 124.368 22.1183C122.54 22.1183 121.623 23.3401 121.623 24.6723C121.623 25.7533 121.214 26.1034 120.579 26.1034H120.033C119.926 24.0861 119.031 23.0318 117.701 22.4342L120.277 20.8926V19.5148L116.095 22.1183V23.1383C117.777 23.5304 118.618 24.4743 118.672 26.1034H114.306V22.2591H112.915V27.3138C112.915 28.4443 112.491 28.7869 111.772 28.7869C111.436 28.7869 111.168 28.7336 110.916 28.6574L110.809 29.7651C111.061 29.8298 111.371 29.8716 111.692 29.8716C113.836 29.8716 114.299 28.5889 114.299 27.2415V27.1996H120.721C121.608 27.1996 122.032 26.8761 122.219 26.3889C122.59 26.8761 123.068 27.1996 124.582 27.1996H130.071V19.7926H128.676L128.684 19.7888ZM125.396 26.1034H124.593C123.496 26.1034 123.011 25.6162 123.011 24.6304C123.011 23.8082 123.477 23.2107 124.272 23.2107C124.979 23.2107 125.4 23.6522 125.4 24.6989V26.0996L125.396 26.1034Z" fill="#FAFAFA"/>
<path d="M133.16 19.7888H131.769V27.1958H133.16V19.7888Z" fill="#FAFAFA"/>
</svg>
